<svg width="650" height="650" viewBox="0 0 661 646" fill="none" xmlns="http://www.w3.org/2000/svg">
<g clip-path="url(#clip0_302_178)">
<path d="M204.141 604.255L204.848 588.355C212.22 584.415 220.442 582.333 228.801 582.292C217.297 591.697 218.735 609.828 210.935 622.476C208.472 626.402 205.158 629.723 201.237 632.194C197.316 634.665 192.889 636.222 188.284 636.75L178.657 642.644C177.336 635.28 177.627 627.717 179.511 620.476C181.394 613.235 184.825 606.488 189.567 600.701C192.259 597.481 195.346 594.612 198.755 592.163C201.061 598.243 204.141 604.255 204.141 604.255Z" fill="#F2F2F2"/>
<path d="M602.073 372.578C628.028 352.809 640.424 319.589 632.663 287.899C632.471 287.112 632.267 286.326 632.053 285.543C626.908 266.732 614.179 248.854 595.626 242.843C580.049 237.797 563.045 241.678 546.794 239.671C514.892 235.731 490.159 209.919 472.757 182.893C455.354 155.867 441.979 125.615 418.855 103.288C380.738 66.4851 318.559 58.5614 271.3 82.5173C224.04 106.473 193.936 159.622 195.22 212.59C196.504 265.559 227.949 316.201 273.616 343.07C290.392 352.941 309.795 359.933 329.105 357.486C345.86 355.363 361.084 346.36 377.76 343.688C403.978 339.485 430.03 351.34 452.707 365.154C475.385 378.967 497.289 395.341 523.059 401.745C548.081 407.964 579.081 390.09 602.073 372.578Z" fill="#F2F2F2"/>
<path d="M396.705 136.023H138.135C132.743 136.029 127.573 138.174 123.76 141.988C119.947 145.801 117.802 150.971 117.795 156.363V285.053C117.802 290.446 119.947 295.616 123.76 299.429C127.573 303.242 132.743 305.387 138.135 305.393H396.705C402.098 305.389 407.269 303.244 411.083 299.431C414.896 295.617 417.041 290.446 417.045 285.053V156.363C417.041 150.97 414.896 145.799 411.083 141.986C407.269 138.172 402.098 136.028 396.705 136.023Z" fill="white"/>
<path d="M396.706 306.396H138.14C132.482 306.389 127.058 304.139 123.057 300.138C119.056 296.138 116.806 290.713 116.8 285.055V156.362C116.806 150.704 119.056 145.279 123.057 141.279C127.058 137.278 132.482 135.028 138.14 135.021H396.706C402.364 135.028 407.788 137.278 411.789 141.279C415.79 145.279 418.04 150.704 418.047 156.362V285.055C418.04 290.713 415.79 296.138 411.789 300.138C407.788 304.139 402.364 306.389 396.706 306.396ZM138.14 137.021C133.012 137.027 128.096 139.067 124.471 142.692C120.845 146.318 118.805 151.234 118.8 156.362V285.055C118.805 290.183 120.845 295.099 124.471 298.725C128.096 302.35 133.012 304.39 138.14 304.396H396.706C401.834 304.39 406.75 302.35 410.375 298.725C414.001 295.099 416.041 290.183 416.047 285.055V156.362C416.041 151.234 414.001 146.318 410.375 142.692C406.75 139.067 401.834 137.027 396.706 137.021H138.14Z" fill="#CCCCCC"/>
<path d="M408.6 341.972H160.812C158.67 341.972 156.616 341.122 155.101 339.607C153.587 338.093 152.736 336.039 152.736 333.897C152.736 331.755 153.587 329.701 155.101 328.186C156.616 326.672 158.67 325.821 160.812 325.821H408.6C410.742 325.821 412.796 326.672 414.311 328.186C415.825 329.701 416.676 331.755 416.676 333.897C416.676 336.039 415.825 338.093 414.311 339.607C412.796 341.122 410.742 341.972 408.6 341.972Z" fill="#E6E6E6"/>
<path d="M240.248 264.965C238.78 264.961 237.337 264.585 236.053 263.872C234.68 263.132 233.535 262.031 232.741 260.689C231.947 259.346 231.534 257.812 231.546 256.253V184.43C231.546 182.873 231.964 181.344 232.757 180.004C233.55 178.663 234.688 177.561 236.053 176.811C237.418 176.061 238.959 175.691 240.516 175.74C242.072 175.79 243.587 176.257 244.901 177.092L313.032 213.003C314.268 213.788 315.285 214.872 315.99 216.155C316.695 217.438 317.064 218.878 317.064 220.341C317.064 221.805 316.695 223.245 315.99 224.528C315.285 225.811 314.268 226.895 313.032 227.68L244.901 263.591C243.513 264.484 241.898 264.96 240.248 264.965Z" fill="#F2F2F2"/>
<path d="M640.352 229.156H532.299C530.046 229.154 527.885 228.258 526.292 226.664C524.698 225.071 523.802 222.91 523.799 220.656V166.877C523.802 164.623 524.698 162.463 526.292 160.869C527.885 159.276 530.046 158.379 532.299 158.377H640.352C642.605 158.379 644.766 159.276 646.359 160.869C647.953 162.463 648.849 164.623 648.852 166.877V220.656C648.849 222.91 647.953 225.071 646.359 226.664C644.766 228.258 642.605 229.154 640.352 229.156Z" fill="white"/>
<path d="M640.352 230.156H532.299C529.781 230.154 527.366 229.152 525.585 227.371C523.804 225.59 522.802 223.175 522.799 220.656V166.877C522.802 164.358 523.804 161.943 525.585 160.162C527.366 158.381 529.781 157.38 532.299 157.377H640.352C642.87 157.38 645.285 158.381 647.066 160.162C648.847 161.943 649.849 164.358 649.852 166.877V220.656C649.849 223.175 648.847 225.59 647.066 227.371C645.285 229.152 642.87 230.154 640.352 230.156ZM532.299 159.377C530.311 159.379 528.405 160.17 526.999 161.576C525.593 162.982 524.802 164.888 524.799 166.877V220.656C524.802 222.645 525.593 224.551 526.999 225.957C528.405 227.363 530.311 228.154 532.299 228.156H640.352C642.34 228.154 644.247 227.363 645.653 225.957C647.059 224.551 647.85 222.645 647.852 220.656V166.877C647.85 164.888 647.059 162.982 645.653 161.576C644.247 160.17 642.34 159.379 640.352 159.377H532.299Z" fill="#CCCCCC"/>
<path d="M622.6 255.472H549.812C547.671 255.47 545.62 254.618 544.107 253.104C542.595 251.59 541.745 249.537 541.745 247.397C541.745 245.256 542.595 243.204 544.107 241.69C545.62 240.175 547.671 239.323 549.812 239.321H622.6C624.742 239.321 626.796 240.172 628.311 241.686C629.825 243.201 630.676 245.255 630.676 247.397C630.676 249.539 629.825 251.593 628.311 253.107C626.796 254.622 624.742 255.472 622.6 255.472Z" fill="#E6E6E6"/>
<path d="M574.707 212.905C574.093 212.904 573.49 212.747 572.954 212.449C572.38 212.139 571.902 211.679 571.57 211.118C571.238 210.557 571.065 209.916 571.07 209.265V179.251C571.07 178.6 571.245 177.961 571.576 177.401C571.908 176.841 572.383 176.38 572.954 176.067C573.524 175.753 574.168 175.599 574.819 175.62C575.469 175.64 576.102 175.835 576.651 176.184L605.123 191.191C605.639 191.519 606.064 191.972 606.359 192.508C606.653 193.044 606.807 193.646 606.807 194.258C606.807 194.869 606.653 195.471 606.359 196.007C606.064 196.543 605.639 196.996 605.123 197.324L576.651 212.331C576.071 212.704 575.396 212.903 574.707 212.905Z" fill="#6C63FF"/>
<path d="M571.352 460.512H463.299C461.046 460.51 458.885 459.614 457.292 458.02C455.698 456.427 454.802 454.266 454.799 452.012V398.233C454.802 395.979 455.698 393.819 457.292 392.225C458.885 390.632 461.046 389.735 463.299 389.733H571.352C573.605 389.735 575.766 390.632 577.359 392.225C578.953 393.819 579.849 395.979 579.852 398.233V452.012C579.849 454.266 578.953 456.427 577.359 458.02C575.766 459.614 573.605 460.51 571.352 460.512Z" fill="white"/>
<path d="M571.352 461.512H463.3C460.781 461.51 458.366 460.508 456.585 458.727C454.804 456.946 453.802 454.531 453.8 452.012V398.233C453.802 395.714 454.804 393.299 456.585 391.518C458.366 389.737 460.781 388.736 463.3 388.733H571.352C573.87 388.736 576.285 389.737 578.066 391.518C579.847 393.299 580.849 395.714 580.852 398.233V452.012C580.849 454.531 579.847 456.946 578.066 458.727C576.285 460.508 573.87 461.51 571.352 461.512ZM463.3 390.733C461.311 390.735 459.405 391.526 457.999 392.932C456.593 394.338 455.802 396.244 455.8 398.233V452.012C455.802 454.001 456.593 455.907 457.999 457.313C459.405 458.719 461.311 459.51 463.3 459.512H571.352C573.34 459.51 575.247 458.719 576.653 457.313C578.059 455.907 578.85 454.001 578.852 452.012V398.233C578.85 396.244 578.059 394.338 576.653 392.932C575.247 391.526 573.34 390.735 571.352 390.733H463.3Z" fill="#CCCCCC"/>
<path d="M553.6 486.972H480.812C478.671 486.97 476.62 486.118 475.107 484.604C473.595 483.09 472.745 481.037 472.745 478.897C472.745 476.756 473.595 474.704 475.107 473.19C476.62 471.675 478.671 470.823 480.812 470.821H553.6C555.742 470.821 557.796 471.672 559.311 473.186C560.825 474.701 561.676 476.755 561.676 478.897C561.676 481.039 560.825 483.093 559.311 484.607C557.796 486.122 555.742 486.972 553.6 486.972Z" fill="#E6E6E6"/>
<path d="M505.444 445.905C504.831 445.904 504.228 445.747 503.691 445.449C503.117 445.139 502.639 444.68 502.307 444.118C501.975 443.557 501.802 442.916 501.808 442.265V412.251C501.808 411.6 501.982 410.961 502.314 410.401C502.645 409.841 503.121 409.38 503.691 409.067C504.261 408.753 504.905 408.599 505.556 408.62C506.206 408.64 506.839 408.835 507.389 409.184L535.86 424.191C536.376 424.519 536.801 424.972 537.096 425.508C537.39 426.044 537.545 426.646 537.545 427.258C537.545 427.869 537.39 428.471 537.096 429.007C536.801 429.543 536.376 429.997 535.86 430.325L507.389 445.331C506.808 445.704 506.134 445.903 505.444 445.905Z" fill="#6C63FF"/>
<path d="M204.441 274.448L149.137 274.82C149.137 274.82 117.64 264.666 103.355 266.787L97.8939 288.242L137.129 301.241L205.412 291.334C206.945 292.108 208.654 292.465 210.368 292.368C212.082 292.272 213.741 291.725 215.177 290.784C216.613 289.843 217.775 288.54 218.548 287.006C219.32 285.473 219.675 283.763 219.576 282.049C219.478 280.335 218.929 278.677 217.986 277.242C217.043 275.807 215.739 274.646 214.205 273.876C212.67 273.105 210.96 272.752 209.246 272.853C207.532 272.953 205.875 273.504 204.441 274.448L204.441 274.448Z" fill="#A0616A"/>
<path d="M136.66 303.319L71.0466 284.448L65.0731 262.19C63.517 259.221 62.8224 255.875 63.0679 252.532C63.3134 249.188 64.4893 245.98 66.4625 243.269C72.064 235.683 76.4424 243.218 84.3919 248.291C98.3276 249.277 133.111 261.179 147.231 274.96L146.119 283.431L136.66 303.319Z" fill="#3F3D56"/>
<path d="M193.748 285.151C192.281 285.147 190.838 284.771 189.554 284.059C188.181 283.318 187.036 282.217 186.242 280.875C185.448 279.532 185.034 277.999 185.047 276.439V204.616C185.047 203.059 185.465 201.53 186.258 200.19C187.051 198.85 188.189 197.747 189.554 196.997C190.919 196.247 192.46 195.877 194.016 195.927C195.573 195.976 197.088 196.443 198.402 197.278L266.533 233.189C267.769 233.974 268.786 235.058 269.491 236.341C270.196 237.624 270.565 239.064 270.565 240.528C270.565 241.991 270.196 243.431 269.491 244.714C268.786 245.997 267.769 247.081 266.533 247.866L198.402 283.777C197.014 284.67 195.399 285.146 193.748 285.151Z" fill="#6C63FF"/>
<path d="M147.978 631.089L161.937 631.088L168.577 577.248L147.976 577.249L147.978 631.089Z" fill="#A0616A"/>
<path d="M144.417 626.531L148.346 626.531L163.686 620.293L171.907 626.53H171.908C176.554 626.53 181.01 628.376 184.295 631.661C187.58 634.946 189.426 639.402 189.426 644.048V644.617L144.418 644.619L144.417 626.531Z" fill="#2F2E41"/>
<path d="M48.578 617.948L61.8 622.424L85.358 573.559L65.845 566.952L48.578 617.948Z" fill="#A0616A"/>
<path d="M46.6673 612.489L50.3887 613.749L66.9182 612.761L72.7046 621.305L72.7057 621.305C77.1062 622.796 80.7344 625.973 82.7924 630.139C84.8504 634.304 85.1696 639.116 83.6797 643.517L83.4971 644.056L40.8665 629.622L46.6673 612.489Z" fill="#2F2E41"/>
<path d="M64.7578 399.181C64.7578 399.181 63.1279 418.74 67.2026 437.484C71.2774 456.228 80.0466 518.448 80.0466 518.448C62.2849 547.642 51.991 576.369 50.0466 605.448L75.0466 607.448L110.843 522.514L114.47 437.484L140.548 495.345L139.207 499.815C138.89 500.873 138.929 502.005 139.318 503.037C139.707 504.07 140.424 504.947 141.36 505.532C141.36 505.532 138.918 521.424 140.548 521.424C142.178 521.424 146.253 523.869 146.253 523.869C136.093 555.497 134.729 585.785 144.047 614.448L166.047 613.448L180.481 488.826L169.887 421.185L169.072 408.145L165.404 408.296L163.537 402.848L160.107 393.476L64.7578 399.181Z" fill="#2F2E41"/>
<path d="M63.3492 403.289L63.2039 403.085C55.4468 392.225 67.1136 366.128 68.8732 362.345L61.4618 359.94L54.9812 305.1L50.2415 286.155C48.4557 278.993 48.6079 271.485 50.6825 264.402C52.7571 257.318 56.6794 250.914 62.0468 245.847L73.0025 235.518L86.3171 215.817H107.788L115.15 229.723C122.288 231.372 128.621 235.474 133.045 241.312C137.47 247.151 139.706 254.357 139.364 261.674L137.696 298.146L144.228 343.555L144.232 351.773L155.572 370.366L158.042 381.893C159.064 383.242 165.812 392.239 165.812 394.699C165.812 395.068 165.539 395.425 164.954 395.821C160.356 398.935 134.94 405.283 123.691 400.781C111.708 395.99 64.0766 403.178 63.5967 403.251L63.3492 403.289Z" fill="#3F3D56"/>
<path d="M282.67 644.258C282.671 644.414 282.64 644.569 282.581 644.713C282.522 644.857 282.435 644.988 282.325 645.098C282.215 645.209 282.085 645.297 281.941 645.357C281.797 645.417 281.643 645.448 281.487 645.448H1.19C0.874395 645.448 0.57171 645.323 0.348541 645.1C0.125373 644.877 0 644.574 0 644.258C0 643.943 0.125373 643.64 0.348541 643.417C0.57171 643.194 0.874395 643.068 1.19 643.068H281.48C281.795 643.067 282.097 643.191 282.32 643.413C282.543 643.635 282.669 643.937 282.67 644.251V644.258Z" fill="#CCCCCC"/>
<path d="M99.8263 209.457C115.531 209.457 128.262 196.726 128.262 181.021C128.262 165.316 115.531 152.585 99.8263 152.585C84.1216 152.585 71.3903 165.316 71.3903 181.021C71.3903 196.726 84.1216 209.457 99.8263 209.457Z" fill="#A0616A"/>
<path d="M205.386 202.852L161.513 236.525C161.513 236.525 130.271 247.438 120.162 257.751L128.755 278.154L167.884 264.84L216.351 215.731C218.04 215.423 219.619 214.676 220.927 213.564C222.236 212.452 223.228 211.016 223.805 209.399C224.382 207.781 224.523 206.041 224.213 204.352C223.903 202.663 223.154 201.086 222.041 199.779C220.928 198.471 219.49 197.48 217.872 196.905C216.255 196.33 214.514 196.192 212.825 196.503C211.137 196.815 209.56 197.566 208.254 198.68C206.948 199.795 205.959 201.234 205.386 202.852Z" fill="#A0616A"/>
<path d="M168.765 266.779L107.818 284.626L86.863 277.189C83.83 275.761 81.2571 273.512 79.4349 270.698C77.6128 267.884 76.614 264.616 76.5516 261.264C76.4394 251.834 84.4784 255.2 93.8786 254.448C105.585 246.823 140.503 235.32 160.079 237.787L164.304 245.213L168.765 266.779Z" fill="#3F3D56"/>
<path d="M119.325 148.189C117.287 148.129 117.987 144.287 116.345 143.062C116.337 143.099 116.329 143.136 116.32 143.173C116.105 144.003 115.629 144.742 114.962 145.281C114.295 145.82 113.473 146.13 112.617 146.167C111.76 146.203 110.915 145.964 110.204 145.484C109.494 145.003 108.957 144.308 108.672 143.5C108.4 142.564 107.907 141.708 107.235 141.003C106.562 140.298 105.731 139.765 104.81 139.448C104.708 143.009 102.014 146.099 98.8012 147.637C95.5882 149.175 91.9246 149.431 88.3629 149.483C84.8012 149.536 81.1882 149.417 77.7343 150.288C74.2805 151.16 70.921 153.209 69.4454 156.451C67.9697 159.693 69.0225 164.157 72.2493 165.666C69.7495 165.679 67.6285 167.742 66.7642 170.087C66.0557 172.493 65.8709 175.023 66.2222 177.506C66.9247 186.701 68.6375 196.601 75.3331 202.942C80.4361 207.775 87.7402 209.722 94.7686 209.694C101.797 209.666 100.561 209.02 107.357 207.226C107.357 207.226 113.818 188.705 112.191 186.883C110.564 185.061 109.213 182.729 109.507 180.304C109.801 177.879 112.407 175.707 114.669 176.63C114.289 175.658 114.002 175.473 113.823 175.522C113.937 175.246 114.037 174.964 114.121 174.677C114.547 173.216 115.314 171.877 116.358 170.77C117.402 169.663 118.693 168.82 120.127 168.309C121.575 167.839 123.132 167.824 124.589 168.265C126.046 168.706 127.333 169.582 128.278 170.776C135.719 163.797 131.102 148.539 119.325 148.189Z" fill="#2F2E41"/>
<path d="M600.668 34.4843H146.375C145.902 34.4742 145.452 34.2794 145.122 33.9417C144.791 33.604 144.606 33.1503 144.606 32.6777C144.606 32.2051 144.791 31.7513 145.122 31.4136C145.452 31.0759 145.902 30.8812 146.375 30.8711H600.668C601.14 30.8812 601.59 31.0759 601.92 31.4136C602.251 31.7513 602.436 32.2051 602.436 32.6777C602.436 33.1503 602.251 33.604 601.92 33.9417C601.59 34.2794 601.14 34.4742 600.668 34.4843Z" fill="#CACACA"/>
<path d="M177.299 21.6469C183.146 21.6469 187.886 16.8011 187.886 10.8235C187.886 4.84582 183.146 0 177.299 0C171.452 0 166.711 4.84582 166.711 10.8235C166.711 16.8011 171.452 21.6469 177.299 21.6469Z" fill="#3F3D56"/>
<path d="M213.874 21.6469C219.721 21.6469 224.461 16.8011 224.461 10.8235C224.461 4.84582 219.721 0 213.874 0C208.027 0 203.286 4.84582 203.286 10.8235C203.286 16.8011 208.027 21.6469 213.874 21.6469Z" fill="#3F3D56"/>
<path d="M250.449 21.6469C256.296 21.6469 261.036 16.8011 261.036 10.8235C261.036 4.84582 256.296 0 250.449 0C244.602 0 239.861 4.84582 239.861 10.8235C239.861 16.8011 244.602 21.6469 250.449 21.6469Z" fill="#3F3D56"/>
<path d="M578.646 2.68262H552.665C552.15 2.69281 551.66 2.90455 551.299 3.27237C550.939 3.64019 550.737 4.13474 550.737 4.64984C550.737 5.16494 550.939 5.65951 551.299 6.02733C551.66 6.39515 552.15 6.60688 552.665 6.61707H578.646C579.161 6.60688 579.652 6.39515 580.012 6.02733C580.373 5.65951 580.575 5.16494 580.575 4.64984C580.575 4.13474 580.373 3.64019 580.012 3.27237C579.652 2.90455 579.161 2.69281 578.646 2.68262Z" fill="#3F3D56"/>
<path d="M578.646 10.0671H552.665C552.15 10.0773 551.66 10.2891 551.299 10.6569C550.939 11.0247 550.737 11.5193 550.737 12.0344C550.737 12.5495 550.939 13.044 551.299 13.4118C551.66 13.7797 552.15 13.9914 552.665 14.0016H578.646C579.161 13.9914 579.652 13.7797 580.012 13.4118C580.373 13.044 580.575 12.5495 580.575 12.0344C580.575 11.5193 580.373 11.0247 580.012 10.6569C579.652 10.2891 579.161 10.0773 578.646 10.0671Z" fill="#3F3D56"/>
<path d="M578.646 17.4417H552.665C552.15 17.4518 551.66 17.6636 551.299 18.0314C550.939 18.3992 550.737 18.8938 550.737 19.4089C550.737 19.924 550.939 20.4185 551.299 20.7863C551.66 21.1542 552.15 21.3659 552.665 21.3761H578.646C579.161 21.3659 579.652 21.1542 580.012 20.7863C580.373 20.4185 580.575 19.924 580.575 19.4089C580.575 18.8938 580.373 18.3992 580.012 18.0314C579.652 17.6636 579.161 17.4518 578.646 17.4417Z" fill="#3F3D56"/>
<path d="M359.075 136.023V163.183C359.075 164.533 356.715 165.663 353.535 165.973C353.508 165.972 353.481 165.975 353.455 165.983C352.925 166.023 352.365 166.053 351.795 166.053C350.042 166.085 348.297 165.801 346.645 165.213C346.495 165.153 346.345 165.083 346.195 165.023C346.055 164.943 345.905 164.873 345.765 164.793C344.975 164.323 344.515 163.773 344.515 163.183V136.023H359.075Z" fill="#CCCCCC"/>
<path d="M580.1 470.158C586.933 470.158 592.472 464.619 592.472 457.786C592.472 450.953 586.933 445.413 580.1 445.413C573.267 445.413 567.727 450.953 567.727 457.786C567.727 464.619 573.267 470.158 580.1 470.158Z" fill="#3F3D56"/>
<path d="M579.173 462.73C579.147 462.73 579.121 462.73 579.094 462.728C578.861 462.717 578.633 462.655 578.426 462.548C578.219 462.44 578.038 462.289 577.895 462.105L575.827 459.447C575.697 459.279 575.6 459.087 575.544 458.882C575.488 458.677 575.472 458.463 575.498 458.252C575.525 458.041 575.592 457.838 575.697 457.653C575.803 457.468 575.943 457.306 576.111 457.175L576.185 457.117C576.353 456.987 576.545 456.89 576.75 456.834C576.955 456.777 577.169 456.762 577.38 456.788C577.591 456.815 577.795 456.882 577.98 456.987C578.165 457.093 578.327 457.233 578.457 457.401C578.562 457.535 578.694 457.645 578.845 457.723C578.996 457.802 579.162 457.847 579.332 457.855C579.501 457.863 579.671 457.835 579.829 457.771C579.986 457.708 580.129 457.612 580.246 457.488L584.444 453.056C584.739 452.745 585.146 452.564 585.575 452.552C586.004 452.54 586.42 452.699 586.732 452.994L586.801 453.06C586.956 453.206 587.08 453.381 587.166 453.575C587.253 453.769 587.3 453.979 587.306 454.191C587.312 454.404 587.276 454.615 587.2 454.814C587.124 455.012 587.009 455.194 586.863 455.348L580.348 462.225C580.197 462.385 580.015 462.512 579.813 462.599C579.611 462.686 579.393 462.73 579.173 462.73Z" fill="white"/>
<path d="M648.1 240.158C654.933 240.158 660.472 234.619 660.472 227.786C660.472 220.953 654.933 215.413 648.1 215.413C641.267 215.413 635.727 220.953 635.727 227.786C635.727 234.619 641.267 240.158 648.1 240.158Z" fill="#3F3D56"/>
<path d="M647.173 232.73C647.147 232.73 647.121 232.729 647.094 232.728C646.861 232.717 646.633 232.655 646.426 232.548C646.219 232.44 646.038 232.289 645.895 232.105L643.827 229.447C643.697 229.279 643.6 229.087 643.544 228.882C643.488 228.677 643.472 228.463 643.498 228.252C643.525 228.041 643.592 227.837 643.697 227.652C643.803 227.468 643.943 227.305 644.111 227.175L644.185 227.117C644.353 226.986 644.545 226.89 644.75 226.834C644.955 226.777 645.169 226.762 645.38 226.788C645.591 226.814 645.795 226.882 645.98 226.987C646.165 227.092 646.327 227.233 646.457 227.401C646.562 227.535 646.694 227.645 646.845 227.723C646.996 227.802 647.162 227.846 647.332 227.855C647.501 227.863 647.671 227.834 647.829 227.771C647.986 227.708 648.129 227.611 648.246 227.488L652.444 223.056C652.739 222.745 653.146 222.563 653.575 222.552C654.004 222.54 654.42 222.699 654.732 222.994L654.801 223.059C654.956 223.205 655.08 223.381 655.166 223.575C655.253 223.769 655.3 223.978 655.306 224.191C655.312 224.403 655.276 224.615 655.2 224.813C655.124 225.012 655.009 225.194 654.863 225.348L648.348 232.225C648.197 232.384 648.015 232.511 647.813 232.598C647.611 232.685 647.393 232.73 647.173 232.73Z" fill="white"/>
</g>
<defs>
<clipPath id="clip0_302_178">
<rect width="660.472" height="645.448" fill="white"/>
</clipPath>
</defs>
</svg>
