<svg width="1014" height="505" viewBox="0 0 1014 505" fill="none" xmlns="http://www.w3.org/2000/svg">
<path d="M496 96C498.761 96 501 93.7614 501 91C501 88.2386 498.761 86 496 86C493.239 86 491 88.2386 491 91C491 93.7614 493.239 96 496 96Z" fill="#F2F2F2"/>
<path d="M339 258C340.105 258 341 257.105 341 256C341 254.895 340.105 254 339 254C337.895 254 337 254.895 337 256C337 257.105 337.895 258 339 258Z" fill="#F2F2F2"/>
<path d="M66 288C67.1046 288 68 287.105 68 286C68 284.895 67.1046 284 66 284C64.8954 284 64 284.895 64 286C64 287.105 64.8954 288 66 288Z" fill="#F2F2F2"/>
<path d="M893 256C894.105 256 895 255.105 895 254C895 252.895 894.105 252 893 252C891.895 252 891 252.895 891 254C891 255.105 891.895 256 893 256Z" fill="#F2F2F2"/>
<path d="M204 238C205.105 238 206 237.105 206 236C206 234.895 205.105 234 204 234C202.895 234 202 234.895 202 236C202 237.105 202.895 238 204 238Z" fill="#F2F2F2"/>
<path d="M579 237C580.105 237 581 236.105 581 235C581 233.895 580.105 233 579 233C577.895 233 577 233.895 577 235C577 236.105 577.895 237 579 237Z" fill="#F2F2F2"/>
<path d="M645 93C646.105 93 647 92.1046 647 91C647 89.8954 646.105 89 645 89C643.895 89 643 89.8954 643 91C643 92.1046 643.895 93 645 93Z" fill="#F2F2F2"/>
<path d="M182 288H180V289H182V288Z" fill="#F2F2F2"/>
<path d="M288 174H286V175H288V174Z" fill="#F2F2F2"/>
<path d="M471 325H470V326H471V325Z" fill="#F2F2F2"/>
<path d="M814 332H812V333H814V332Z" fill="#F2F2F2"/>
<path d="M695 179H693V180H695V179Z" fill="#F2F2F2"/>
<path d="M196.821 363.136H193.302V502.139H196.821V363.136Z" fill="#3F3D56"/>
<path d="M229.298 338.85C229.522 387.456 195.325 427.018 195.325 427.018C195.325 427.018 160.765 387.773 160.541 339.167C160.317 290.561 194.514 251 194.514 251C194.514 251 229.074 290.244 229.298 338.85Z" fill="#3F3D56"/>
<path d="M153.385 321.928H148.822V502.139H153.385V321.928Z" fill="#3F3D56"/>
<path d="M195.489 302.894C195.78 365.909 151.445 417.199 151.445 417.199C151.445 417.199 106.64 366.32 106.349 303.305C106.059 240.289 150.393 189 150.393 189C150.393 189 195.199 239.879 195.489 302.894Z" fill="#3F3D56"/>
<path d="M936.281 365.136H932.762V504.139H936.281V365.136Z" fill="#3F3D56"/>
<path d="M968.758 382.85C968.982 431.456 934.785 471.018 934.785 471.018C934.785 471.018 900.225 431.773 900.001 383.167C899.777 334.561 933.974 295 933.974 295C933.974 295 968.534 334.244 968.758 382.85Z" fill="#3F3D56"/>
<path d="M112.821 363.136H109.302V502.139H112.821V363.136Z" fill="#3F3D56"/>
<path d="M145.298 338.85C145.522 387.456 111.325 427.018 111.325 427.018C111.325 427.018 76.7647 387.773 76.5406 339.167C76.3166 290.561 110.514 251 110.514 251C110.514 251 145.074 290.244 145.298 338.85Z" fill="#3F3D56"/>
<path d="M498 405H496V503H498V405Z" fill="#3F3D56"/>
<path d="M521.999 388.389C522.162 422.355 497.295 450 497.295 450C497.295 450 472.164 422.576 472.001 388.611C471.838 354.645 496.705 327 496.705 327C496.705 327 521.836 354.424 521.999 388.389Z" fill="#3F3D56"/>
<path d="M467 376H464V503H467V376Z" fill="#3F3D56"/>
<path d="M496.999 362.856C497.207 407.039 465.378 443 465.378 443C465.378 443 433.21 407.327 433.001 363.144C432.792 318.961 464.622 283 464.622 283C464.622 283 496.79 318.673 496.999 362.856Z" fill="#3F3D56"/>
<path d="M438 405H435V503H438V405Z" fill="#3F3D56"/>
<path d="M460.999 388.389C461.162 422.355 436.295 450 436.295 450C436.295 450 411.164 422.576 411.001 388.611C410.838 354.645 435.705 327 435.705 327C435.705 327 460.836 354.424 460.999 388.389Z" fill="#3F3D56"/>
<path d="M386.466 494.504C388.009 499.751 393.294 503 393.294 503C393.294 503 396.077 497.743 394.534 492.496C392.991 487.249 387.706 484 387.706 484C387.706 484 384.923 489.257 386.466 494.504Z" fill="#3F3D56"/>
<path d="M389.352 493.191C393.494 497.057 394 503 394 503C394 503 387.79 502.675 383.648 498.809C379.506 494.943 379 489 379 489C379 489 385.21 489.325 389.352 493.191Z" fill="#3F3D56"/>
<path d="M790.856 491.91C792.871 499.358 799.772 503.971 799.772 503.971C799.772 503.971 803.406 496.508 801.391 489.06C799.377 481.613 792.476 477 792.476 477C792.476 477 788.841 484.463 790.856 491.91Z" fill="#6C63FF"/>
<path d="M793.817 490.31C799.345 495.692 800.02 503.965 800.02 503.965C800.02 503.965 791.732 503.512 786.204 498.13C780.675 492.748 780 484.475 780 484.475C780 484.475 788.288 484.928 793.817 490.31Z" fill="#6C63FF"/>
<path d="M450 304.854L519.66 407C521.216 400.808 522.001 394.457 522 388.084C521.921 371.463 515.949 356.404 509.85 345.335L506.628 346.113L509.658 344.99C506.067 338.411 501.79 332.208 496.893 326.478C496.893 326.478 495.116 328.477 492.52 332.056C483.368 303.215 465.048 283 465.048 283C459.33 289.804 454.291 297.122 450 304.854V304.854Z" fill="#6C63FF"/>
<path opacity="0.1" d="M52.1305 495C51.3002 495 50.5039 494.684 49.9168 494.121C49.3298 493.559 49 492.796 49 492C49 491.204 49.3298 490.441 49.9168 489.879C50.5039 489.316 51.3002 489 52.1305 489H77.8696C77.0394 490.591 76.9027 492.434 77.4898 494.121C78.0769 495.809 79.3395 497.204 81 498C81 498.796 80.6702 499.559 80.0832 500.121C79.4961 500.684 78.6999 501 77.8696 501H52.1305C51.3002 501 50.5039 500.684 49.9168 500.121C49.3298 499.559 49 498.796 49 498C49 497.204 49.3298 496.441 49.9168 495.879C50.5039 495.316 51.3002 495 52.1305 495V495Z" fill="#F2F2F2"/>
<path d="M113.013 489.065C112.577 504.482 122.824 500.552 135.247 500.552C147.669 500.552 157.916 502.517 158 489.065C158.041 482.441 147.855 481 135.433 481C123.01 481 113.201 482.443 113.013 489.065Z" fill="#3F3D56"/>
<path d="M83.5354 495.429C83.7381 495.33 83.9584 495.266 84.1861 495.238C85.3251 495.072 86.4538 494.851 87.5672 494.576C88.6853 494.298 89.7125 493.775 90.5598 493.051C90.8761 492.711 91.2292 492.401 91.6138 492.127C91.809 491.992 92.0425 491.911 92.2864 491.895C92.5302 491.879 92.7739 491.928 92.9881 492.036C93.0322 492.068 93.0729 492.103 93.1098 492.142C93.2656 492.048 93.4215 491.954 93.5775 491.859C94.4082 491.359 95.2429 490.864 96.0816 490.374L96.1156 490.354C96.0917 490.234 96.0909 490.11 96.1132 489.989C96.2597 489.592 96.5558 489.256 96.9485 489.04C95.8661 489.031 94.7781 488.94 93.7024 488.836C92.6779 488.852 91.6877 488.498 90.9467 487.85C90.8351 487.737 90.7675 487.594 90.7547 487.442C90.7534 487.132 91.1031 486.929 91.4167 486.811C91.8341 486.655 92.2679 486.537 92.7112 486.461C93.0211 486.421 93.3278 486.363 93.6292 486.286C93.8976 486.196 94.1563 486.084 94.4021 485.951C94.9353 485.683 95.4685 485.414 96.0017 485.145C96.2289 485.044 96.4376 484.912 96.6204 484.752C96.892 484.489 97.0122 484.117 97.289 483.858C97.5441 483.62 98.5754 483.306 98.723 483.794C98.7813 483.987 98.5588 484.201 98.5319 484.416C98.8887 484.211 99.2583 484.025 99.6389 483.859C99.6182 483.816 99.5908 483.777 99.573 483.733C101.343 482.433 102.749 480.767 103.674 478.87C103.516 478.873 103.357 478.883 103.199 478.882C102.929 478.904 102.658 478.844 102.43 478.71C102.336 478.631 102.263 478.535 102.216 478.426C102.168 478.318 102.149 478.202 102.158 478.086C102.178 477.854 102.24 477.627 102.342 477.413C102.568 476.774 102.929 476.181 103.404 475.669C103.864 475.262 104.388 474.921 104.959 474.657L105.051 474.609C105.09 474.502 105.126 474.393 105.173 474.287C105.517 473.632 105.907 472.997 106.339 472.386C106.948 471.364 107.397 470.269 107.673 469.133C107.775 468.441 108.065 467.783 108.515 467.22C109.348 466.379 110.776 466.401 112.007 466.528C112.709 466.6 113.408 466.697 114.106 466.796C114.113 466.78 114.114 466.763 114.121 466.747C114.208 466.596 114.263 466.431 114.281 466.262C114.264 466.123 114.231 465.986 114.182 465.854C114.145 465.689 114.153 465.519 114.207 465.358C114.26 465.197 114.357 465.051 114.488 464.933C114.517 464.908 114.546 464.879 114.574 464.851C114.498 464.685 114.427 464.518 114.363 464.349C114.305 464.286 114.261 464.214 114.235 464.135C114.209 464.057 114.2 463.975 114.209 463.893C114.083 463.484 114.015 463.061 114.01 462.635C114.153 461.695 114.19 460.744 114.12 459.797C114.157 459.563 114.25 459.339 114.393 459.141C114.419 459.11 114.461 459.095 114.49 459.067C114.278 458.809 114.032 458.576 113.758 458.372C113.221 457.992 112.646 457.658 112.041 457.375C111.896 457.302 111.694 457.25 111.555 457.166C111.343 457.199 111.128 457.219 110.913 457.225C110.114 457.23 109.325 457.055 108.616 456.716C107.908 456.377 107.3 455.884 106.848 455.281C106.395 454.678 106.11 453.982 106.019 453.255C105.927 452.527 106.032 451.79 106.323 451.109C106.101 451.059 105.892 450.97 105.709 450.846C105.525 450.722 105.371 450.566 105.254 450.386C105.014 450.005 104.871 449.58 104.834 449.142C104.796 448.974 104.794 448.8 104.83 448.631C104.865 448.463 104.936 448.302 105.04 448.158C105.223 447.995 105.434 447.86 105.664 447.758C105.982 447.577 106.248 447.329 106.443 447.037C106.58 446.828 106.679 446.6 106.803 446.384C107.009 445.985 107.331 445.645 107.733 445.4C108.135 445.156 108.602 445.018 109.084 445C109.543 445.053 109.996 445.136 110.442 445.248C111.969 445.493 113.629 444.753 115.046 445.33C115.394 445.485 115.718 445.683 116.009 445.918C116.408 446.22 116.791 446.537 117.159 446.87C117.479 447.12 117.721 447.442 117.86 447.805C118.053 448.467 117.595 449.206 117.886 449.837C117.986 450.017 118.105 450.189 118.241 450.348C118.563 450.779 118.214 452.465 118.249 452.986C118.29 453.241 118.219 453.501 118.052 453.709C118.009 453.748 117.961 453.782 117.909 453.809C120.285 454.585 122.609 455.49 124.868 456.518C127.58 457.719 129.832 459.645 131.325 462.041C131.709 462.726 132.001 463.45 132.348 464.151C132.81 465.086 133.37 465.978 133.929 466.867C134.61 467.953 135.293 469.04 136.082 470.063C136.531 470.605 136.947 471.17 137.328 471.754C137.338 471.84 137.341 471.925 137.336 472.011C137.321 472.092 137.33 472.175 137.362 472.251C137.396 472.296 137.44 472.333 137.492 472.36C137.543 472.387 137.601 472.403 137.66 472.408L137.678 472.452C137.856 472.977 138.004 473.511 138.121 474.051C138.354 474.909 138.725 475.738 138.867 476.612C138.95 476.722 138.996 476.851 139 476.984C139.003 477.118 138.964 477.249 138.887 477.362C138.809 477.475 138.698 477.565 138.565 477.62C138.433 477.675 138.285 477.694 138.142 477.673C137.324 478.006 136.537 478.396 135.752 478.789C135.764 478.842 135.782 478.892 135.789 478.946C135.815 479.503 135.669 480.054 135.366 480.538C135.064 481.021 134.619 481.416 134.082 481.677C132.999 482.184 131.813 482.479 130.599 482.544C130.129 482.596 129.655 482.62 129.184 482.664C128.496 483.014 127.764 483.286 127.004 483.473C126.838 483.517 126.666 483.541 126.493 483.546C126.262 483.532 126.037 483.47 125.835 483.366C125.634 483.262 125.46 483.118 125.327 482.944C121.27 483.149 117.203 483.073 113.159 482.717C112.039 482.478 110.863 482.645 109.875 483.183C108.998 483.836 108.821 484.993 108.17 485.839C107.696 486.36 107.164 486.835 106.583 487.256C105.428 488.375 104.407 489.605 103.536 490.923C102.658 492.254 101.385 493.329 99.8658 494.025C99.5925 493.626 99.1961 493.31 98.7265 493.118C98.605 493.052 98.4892 492.974 98.3699 492.903C98.2095 493.142 98.0228 493.365 97.8128 493.568C97.6566 493.723 97.5011 493.886 97.355 494.055C97.3597 494.056 97.3636 494.053 97.3683 494.054C97.5807 494.084 97.6518 494.327 97.6762 494.523C97.7696 495.272 97.863 496.021 97.9565 496.77C97.9896 496.918 97.9784 497.071 97.9238 497.214C97.8231 497.369 97.6673 497.487 97.4825 497.549C96.7235 497.883 95.9021 498.081 95.0621 498.134C94.6394 498.16 94.2146 498.149 93.7928 498.183C93.1007 498.265 92.4157 498.391 91.7423 498.558C89.9092 498.941 88.0248 499.076 86.149 498.959C85.7617 498.951 85.3785 498.884 85.0146 498.763C84.5842 498.573 84.2025 498.303 83.8948 497.969C83.5039 497.629 83.214 497.204 83.0524 496.733C82.9771 496.497 82.9831 496.245 83.0695 496.012C83.1559 495.778 83.3186 495.575 83.5354 495.429V495.429Z" fill="#3F3D56"/>
<path d="M110.254 446.397C110.131 446.615 110.032 446.845 109.895 447.056C109.701 447.351 109.435 447.601 109.119 447.784C108.89 447.887 108.679 448.023 108.496 448.188C108.393 448.333 108.322 448.495 108.287 448.665C108.252 448.836 108.254 449.011 108.292 449.181C108.328 449.623 108.471 450.052 108.71 450.437C108.826 450.618 108.981 450.775 109.164 450.901C109.347 451.026 109.555 451.116 109.775 451.166C109.441 451.9 109.325 452.704 109.44 453.493C109.556 454.283 109.898 455.029 110.431 455.654C110.964 456.279 111.669 456.76 112.471 457.046C113.273 457.332 114.143 457.413 114.991 457.28C115.129 457.364 115.33 457.417 115.475 457.49C116.077 457.776 116.651 458.113 117.187 458.496C117.459 458.703 117.704 458.938 117.916 459.199C117.887 459.227 117.845 459.242 117.819 459.274C117.676 459.473 117.583 459.699 117.547 459.936C117.617 460.892 117.58 461.851 117.437 462.8C117.443 463.23 117.51 463.657 117.636 464.07C117.627 464.152 117.635 464.235 117.662 464.314C117.688 464.393 117.731 464.466 117.789 464.529C117.853 464.7 117.924 464.869 118 465.037C117.971 465.065 117.943 465.094 117.914 465.12C117.783 465.238 117.686 465.386 117.633 465.548C117.58 465.71 117.572 465.883 117.609 466.049C117.657 466.182 117.69 466.32 117.708 466.46C117.689 466.632 117.635 466.798 117.548 466.95C117.541 466.966 117.54 466.984 117.534 467C116.837 466.9 116.141 466.802 115.441 466.729C115.096 466.691 114.749 466.67 114.402 466.666C114.428 466.6 114.443 466.531 114.446 466.46C114.429 466.32 114.395 466.182 114.347 466.049C114.31 465.883 114.318 465.71 114.371 465.548C114.425 465.386 114.521 465.238 114.652 465.12C114.681 465.094 114.709 465.065 114.738 465.037C114.661 464.869 114.591 464.7 114.527 464.529C114.469 464.466 114.426 464.393 114.4 464.314C114.373 464.235 114.365 464.152 114.374 464.07C114.248 463.657 114.181 463.23 114.175 462.8C114.318 461.851 114.355 460.892 114.285 459.936C114.322 459.699 114.414 459.473 114.557 459.274C114.583 459.242 114.625 459.227 114.654 459.199C114.442 458.938 114.197 458.703 113.925 458.496C113.389 458.113 112.815 457.776 112.213 457.49C112.068 457.417 111.867 457.364 111.729 457.28C111.517 457.313 111.303 457.333 111.089 457.34C110.292 457.344 109.506 457.168 108.8 456.825C108.093 456.483 107.488 455.986 107.037 455.377C106.585 454.768 106.302 454.066 106.21 453.332C106.119 452.598 106.223 451.854 106.514 451.166C106.293 451.116 106.085 451.026 105.902 450.901C105.719 450.775 105.564 450.618 105.448 450.437C105.209 450.052 105.066 449.623 105.03 449.181C104.992 449.011 104.99 448.836 105.025 448.665C105.06 448.495 105.131 448.333 105.235 448.188C105.418 448.023 105.628 447.887 105.857 447.784C106.174 447.601 106.439 447.351 106.633 447.056C106.77 446.845 106.869 446.615 106.992 446.397C107.198 445.994 107.518 445.65 107.919 445.404C108.32 445.158 108.786 445.018 109.266 445C109.723 445.054 110.175 445.137 110.619 445.25C110.868 445.287 111.12 445.302 111.372 445.296C110.898 445.562 110.512 445.943 110.254 446.397V446.397Z" fill="#FF6584"/>
<path d="M83.5385 495.381C83.7423 495.28 83.964 495.214 84.1929 495.186C85.3385 495.018 86.4736 494.794 87.5934 494.515C88.7179 494.233 89.751 493.702 90.6031 492.968C90.9212 492.623 91.2764 492.309 91.6632 492.03C91.8594 491.894 92.0944 491.812 92.3396 491.796C92.5848 491.78 92.8299 491.829 93.0453 491.939C93.0896 491.971 93.1306 492.007 93.1677 492.046C93.3244 491.951 93.4812 491.855 93.6381 491.759C94.4735 491.252 95.313 490.75 96.1565 490.253L96.1908 490.233C96.1667 490.111 96.1659 489.985 96.1884 489.863C96.3357 489.46 96.6334 489.119 97.0284 488.9C95.9398 488.89 94.8456 488.799 93.7637 488.693C92.7333 488.709 91.7375 488.35 90.9922 487.692C90.8799 487.578 90.8121 487.433 90.7991 487.279C90.7978 486.964 91.1495 486.758 91.4649 486.639C91.8847 486.48 92.321 486.362 92.7668 486.284C93.0785 486.244 93.387 486.184 93.6901 486.106C93.96 486.016 94.2202 485.902 94.4674 485.767C95.0037 485.495 95.5399 485.222 96.0762 484.949C96.3047 484.847 96.5146 484.713 96.6984 484.551C96.9716 484.284 97.0924 483.906 97.3709 483.644C97.6274 483.402 98.6646 483.084 98.813 483.579C98.8717 483.775 98.6479 483.992 98.6208 484.21C98.9797 484.002 99.3515 483.813 99.7342 483.645C99.7134 483.602 99.6858 483.562 99.6679 483.517C101.448 482.199 102.862 480.508 103.793 478.585C103.633 478.588 103.474 478.598 103.314 478.597C103.043 478.62 102.771 478.558 102.541 478.422C102.447 478.343 102.373 478.245 102.326 478.135C102.278 478.025 102.258 477.907 102.268 477.789C102.288 477.554 102.351 477.324 102.453 477.107C102.68 476.459 103.043 475.858 103.52 475.338C103.983 474.925 104.511 474.579 105.085 474.312L105.178 474.264C105.217 474.154 105.252 474.044 105.3 473.937C105.646 473.272 106.038 472.628 106.473 472.009C107.085 470.972 107.537 469.862 107.815 468.709C107.917 468.007 108.208 467.34 108.661 466.768C109.499 465.916 110.935 465.937 112.173 466.066C112.449 466.095 112.724 466.138 113 466.173C112.6 466.282 112.238 466.487 111.953 466.768C111.5 467.34 111.209 468.007 111.106 468.709C110.828 469.862 110.377 470.972 109.764 472.009C109.329 472.628 108.938 473.272 108.591 473.937C108.544 474.044 108.508 474.154 108.469 474.264L108.376 474.312C107.802 474.579 107.275 474.925 106.812 475.338C106.334 475.858 105.971 476.459 105.744 477.107C105.642 477.324 105.58 477.554 105.559 477.789C105.55 477.907 105.57 478.025 105.617 478.135C105.665 478.245 105.738 478.343 105.833 478.422C106.062 478.558 106.334 478.62 106.606 478.597C106.765 478.598 106.925 478.588 107.084 478.585C106.153 480.508 104.739 482.199 102.959 483.517C102.977 483.562 103.005 483.602 103.026 483.645C102.643 483.813 102.271 484.002 101.912 484.21C101.939 483.992 102.163 483.775 102.104 483.579C101.956 483.084 100.919 483.402 100.662 483.644C100.384 483.906 100.263 484.284 99.9898 484.551C99.806 484.713 99.5961 484.847 99.3676 484.949C98.8313 485.222 98.2951 485.495 97.7588 485.767C97.5116 485.902 97.2514 486.016 96.9815 486.106C96.6783 486.184 96.3699 486.244 96.0582 486.284C95.6123 486.362 95.1761 486.48 94.7563 486.639C94.4409 486.758 94.0892 486.964 94.0905 487.279C94.1034 487.433 94.1714 487.578 94.2836 487.692C95.0289 488.35 96.0248 488.709 97.0551 488.693C98.137 488.799 99.2312 488.89 100.32 488.9C99.9249 489.119 99.6271 489.46 99.4798 489.863C99.4573 489.985 99.4581 490.111 99.4822 490.233L99.4479 490.253C98.6044 490.749 97.765 491.252 96.9295 491.759C96.7726 491.855 96.6158 491.95 96.4592 492.046C96.422 492.007 96.3811 491.971 96.3368 491.939C96.1213 491.829 95.8762 491.78 95.631 491.796C95.3858 491.812 95.1509 491.894 94.9546 492.03C94.5678 492.309 94.2126 492.623 93.8946 492.968C93.0424 493.702 92.0093 494.233 90.8848 494.515C89.765 494.794 88.6299 495.018 87.4843 495.186C87.2554 495.214 87.0338 495.28 86.83 495.381C86.6119 495.528 86.4482 495.734 86.3613 495.971C86.2744 496.207 86.2684 496.463 86.3441 496.703C86.5066 497.18 86.7982 497.612 87.1913 497.956C87.5008 498.295 87.8846 498.569 88.3175 498.761C88.5854 498.855 88.8667 498.912 89.1526 498.931C88.1597 499.012 87.1616 499.022 86.167 498.961C85.7775 498.952 85.3921 498.885 85.0261 498.761C84.5932 498.569 84.2094 498.295 83.8999 497.956C83.5068 497.612 83.2152 497.18 83.0527 496.703C82.977 496.463 82.983 496.207 83.0699 495.971C83.1569 495.734 83.3204 495.528 83.5385 495.381V495.381Z" fill="#FF6584"/>
<path d="M53 484.11C53 494.504 58.1487 491.638 64.5 491.638C70.8513 491.638 76 494.504 76 484.11C76 473.717 64.5 454 64.5 454C64.5 454 53 473.717 53 484.11Z" fill="#FF6584"/>
<path opacity="0.1" d="M60 488.263C60 493.186 62.2386 491.828 65 491.828C67.7614 491.828 70 493.186 70 488.263C70 483.34 65 474 65 474C65 474 60 483.34 60 488.263Z" fill="black"/>
<path d="M50 456C50 456 47.96 453.981 48.0006 452Z" fill="#FF6584"/>
<path d="M75 437C75 437 75.9512 434.034 78 433Z" fill="#FF6584"/>
<path d="M70 451C70 451 71.2683 448.034 74 447Z" fill="#FF6584"/>
<path d="M53 487C53 487 49.94 484.981 50.0009 483Z" fill="#FF6584"/>
<path d="M48 470C48 470 45.96 467.981 46.0006 466Z" fill="#FF6584"/>
<path d="M77.9724 467.216L103.956 475.216L103.613 476.166L77.6299 468.166L77.9724 467.216Z" fill="#FF6584"/>
<path d="M80.2859 468.277C79.3385 472.104 80.9291 471.189 82.3799 471.5C83.8307 471.81 83.5453 473.19 85.5396 469.4C86.9189 466.779 84.8964 466.488 83.4456 466.177C81.9948 465.867 80.9328 465.663 80.2859 468.277Z" fill="#FF6584"/>
<path opacity="0.1" d="M590.422 295.241L590.421 295.24L569.467 276.503L569.278 276.549L560.888 269.13L560.482 269.015L560.919 268.854L471.683 189.061L385.504 112L341.592 134.653L338 135.426L390.625 212.666L589.788 505H825L590.422 295.241Z" fill="#F2F2F2"/>
<path d="M651 107C665.912 107 678 94.9117 678 80C678 65.0883 665.912 53 651 53C636.088 53 624 65.0883 624 80C624 94.9117 636.088 107 651 107Z" fill="#F2F2F2"/>
<path d="M390.137 77.7971C375.37 83.9822 359.422 92.1725 343.611 101.755C329.14 110.525 315.839 119.82 304.569 128.976C304.442 128.803 304.316 128.631 304.195 128.455C297.027 118.35 294.581 106.125 297.38 94.3916C300.179 82.6586 308 72.3491 319.172 65.6664C330.345 58.9838 343.982 56.4582 357.169 58.6295C370.355 60.8008 382.046 67.4967 389.742 77.2861C389.876 77.4575 390.008 77.6264 390.137 77.7971Z" fill="#6C63FF"/>
<g opacity="0.1">
<path d="M324.492 62.4222C318.035 65.2968 312.321 69.3485 307.719 74.3146C303.118 79.2808 299.732 85.0506 297.781 91.2501C295.83 97.4496 295.357 103.94 296.394 110.302C297.43 116.664 299.953 122.754 303.798 128.178C303.918 128.354 304.045 128.526 304.171 128.699C307.519 125.979 311.051 123.246 314.735 120.519C308.513 111.371 306.082 100.553 307.864 89.9407C309.646 79.3286 315.529 69.5926 324.492 62.4222V62.4222Z" fill="white"/>
</g>
<path d="M411.056 69.5106C403.797 71.7483 396.682 74.3441 389.742 77.286C378.367 82.1065 367.311 87.5106 356.63 93.4709C352.172 95.9423 347.692 98.5385 343.225 101.246C339.685 103.391 336.211 105.571 332.825 107.771C322.869 114.195 313.311 121.1 304.195 128.455C297.436 133.884 291.066 139.688 285.123 145.832C271.347 160.263 266.252 171.503 270.775 177.477C275.299 183.452 288.855 183.388 308.944 177.295C323.073 173.012 339.269 166.113 355.961 157.335C362.853 153.715 369.826 149.772 376.775 145.56C383.747 141.335 390.448 136.988 396.782 132.592C410.707 122.93 422.863 113.033 432.227 103.679C432.276 103.628 432.324 103.58 432.374 103.531C433.007 102.902 433.624 102.272 434.231 101.647C434.447 101.42 434.662 101.197 434.877 100.974C434.888 100.959 434.9 100.946 434.913 100.933C435.118 100.72 435.319 100.505 435.521 100.293C435.923 99.8644 436.32 99.4415 436.705 99.0187C436.724 98.9998 436.74 98.9826 436.756 98.9653C437.092 98.5985 437.419 98.2368 437.743 97.877C438.006 97.58 438.269 97.2872 438.526 96.9937C438.714 96.7793 438.9 96.5666 439.082 96.3558C439.215 96.2008 439.347 96.0502 439.474 95.8987C439.65 95.6956 439.824 95.4899 439.995 95.286C440.068 95.2008 440.141 95.1156 440.21 95.0296C440.376 94.8359 440.535 94.6432 440.693 94.4504C440.865 94.2422 441.035 94.0314 441.204 93.825C441.346 93.6537 441.485 93.4799 441.622 93.3079C441.736 93.1608 441.849 93.018 441.965 92.8735C442.279 92.4787 442.581 92.0838 442.879 91.6951C443.027 91.4982 443.176 91.3039 443.32 91.1087C443.463 90.9178 443.607 90.7226 443.746 90.5309C443.976 90.2171 444.199 89.9068 444.418 89.5999C444.52 89.4486 444.628 89.2981 444.731 89.1538C444.808 89.0403 444.884 88.9312 444.96 88.8177C445.017 88.7387 445.072 88.657 445.125 88.5771C445.325 88.2849 445.52 87.9919 445.71 87.7024C446.438 86.5922 447.087 85.5153 447.657 84.4716C451.247 77.9449 451.828 72.7665 449.225 69.3283C444.701 63.3535 431.145 63.4176 411.056 69.5106ZM434.352 100.578C424.653 110.74 411.445 121.662 396.092 132.292C389.849 136.615 383.25 140.893 376.389 145.051C369.552 149.195 362.689 153.079 355.906 156.651C339.153 165.481 322.895 172.418 308.728 176.713C288.956 182.706 275.682 182.856 271.347 177.131C270.965 176.624 270.655 176.077 270.423 175.502C267.971 169.454 273.283 159.183 285.648 146.227C291.546 140.13 297.866 134.369 304.569 128.976C313.74 121.577 323.356 114.633 333.376 108.173C336.709 106.008 340.121 103.869 343.611 101.755C348.018 99.0842 352.436 96.5219 356.835 94.0784C367.574 88.0782 378.694 82.6418 390.137 77.797C397.02 74.8842 404.075 72.3123 411.272 70.0931C429.303 64.6269 441.929 64.023 447.299 68.2998C447.813 68.7055 448.268 69.1675 448.653 69.6749C452.988 75.4002 447.908 86.3738 434.352 100.578V100.578Z" fill="#3F3D56"/>
<path d="M449.238 69.6589C451.814 73.0614 451.102 78.1888 447.657 84.4716C447.084 85.517 446.433 86.5957 445.71 87.7024C445.52 87.9919 445.325 88.2849 445.125 88.5771C445.073 88.657 445.018 88.7387 444.961 88.8177C444.884 88.9312 444.808 89.0403 444.731 89.1538C444.628 89.2982 444.521 89.4487 444.418 89.5999C444.2 89.9068 443.976 90.2171 443.746 90.5309C443.608 90.7226 443.463 90.9179 443.32 91.1088C443.176 91.3039 443.027 91.4982 442.88 91.6951C442.582 92.0839 442.28 92.4787 441.965 92.8735C441.849 93.018 441.736 93.1608 441.622 93.3079C441.486 93.4799 441.346 93.6537 441.205 93.825C441.036 94.0314 440.866 94.2422 440.694 94.4505C440.535 94.6432 440.376 94.8359 440.21 95.0296C440.142 95.1156 440.069 95.2008 439.995 95.286C439.824 95.4899 439.651 95.6956 439.475 95.8988C439.347 96.0502 439.215 96.2009 439.082 96.3558C438.9 96.5667 438.714 96.7794 438.526 96.9937C438.269 97.2872 438.007 97.58 437.743 97.877C437.419 98.2368 437.092 98.5985 436.757 98.9653C436.74 98.9826 436.724 98.9998 436.705 99.0188C436.32 99.4415 435.923 99.8644 435.522 100.293C435.319 100.505 435.119 100.72 434.913 100.933C434.9 100.946 434.888 100.959 434.877 100.974C434.662 101.197 434.447 101.42 434.232 101.647C433.625 102.268 433.006 102.899 432.374 103.531C432.324 103.58 432.276 103.628 432.228 103.679C423.108 112.766 410.998 122.698 396.757 132.581C390.518 136.908 383.867 141.229 376.881 145.463C369.832 149.735 362.822 153.69 355.958 157.292C314.984 178.799 279.204 187.822 271.36 177.461C270.886 176.829 270.519 176.137 270.272 175.408C270.322 175.441 270.37 175.471 270.423 175.502C281.731 182.575 316.532 172.737 355.535 151.846C361.511 148.647 367.588 145.184 373.69 141.485C379.819 137.771 385.689 133.991 391.248 130.198C427.364 105.553 450.454 80.3021 447.299 68.2998C447.252 68.1053 447.197 67.9161 447.132 67.7322C447.955 68.2598 448.667 68.9117 449.238 69.6589V69.6589Z" fill="#3F3D56"/>
<path d="M295.09 159.08C290.331 161.964 284.582 164.118 283.302 162.428C282.023 160.738 286.391 156.76 291.15 153.876C295.91 150.992 301.659 148.838 302.938 150.528C304.218 152.218 299.85 156.196 295.09 159.08ZM291.536 154.385C286.087 157.688 283.125 161.092 283.874 162.081C284.624 163.071 289.256 161.873 294.705 158.571C300.153 155.268 303.115 151.864 302.366 150.875C301.617 149.885 296.985 151.083 291.536 154.385V154.385Z" fill="white"/>
<path d="M324.457 158.745C319.698 161.629 313.949 163.783 312.67 162.093C311.39 160.403 315.758 156.425 320.517 153.541C325.277 150.656 331.026 148.502 332.305 150.193C333.585 151.883 329.217 155.86 324.457 158.745ZM320.903 154.05C315.454 157.352 312.492 160.756 313.242 161.746C313.991 162.736 318.623 161.537 324.072 158.235C329.52 154.933 332.483 151.529 331.733 150.539C330.984 149.549 326.352 150.748 320.903 154.05V154.05Z" fill="white"/>
<path d="M420.92 82.8211C416.161 85.7056 410.412 87.8593 409.133 86.1692C407.853 84.479 412.221 80.5015 416.98 77.6171C421.74 74.7326 427.489 72.5789 428.768 74.269C430.048 75.9592 425.68 79.9367 420.92 82.8211ZM417.366 78.1265C411.917 81.4287 408.955 84.8328 409.705 85.8225C410.454 86.8123 415.086 85.614 420.535 82.3118C425.983 79.0096 428.946 75.6054 428.196 74.6157C427.447 73.6259 422.815 74.8243 417.366 78.1265V78.1265Z" fill="white"/>
<path d="M409.678 107.097C404.919 109.981 399.17 112.135 397.89 110.445C396.611 108.754 400.979 104.777 405.738 101.892C410.498 99.008 416.246 96.8543 417.526 98.5444C418.806 100.235 414.438 104.212 409.678 107.097ZM406.124 102.402C400.675 105.704 397.713 109.108 398.462 110.098C399.212 111.088 403.844 109.889 409.292 106.587C414.741 103.285 417.703 99.8808 416.954 98.8911C416.205 97.9013 411.573 99.0997 406.124 102.402V102.402Z" fill="white"/>
<path d="M371.31 138.524C366.551 141.408 360.802 143.562 359.522 141.872C358.243 140.181 362.611 136.204 367.37 133.319C372.129 130.435 377.878 128.281 379.158 129.971C380.437 131.662 376.069 135.639 371.31 138.524ZM367.756 133.829C362.307 137.131 359.345 140.535 360.094 141.525C360.843 142.515 365.476 141.316 370.924 138.014C376.373 134.712 379.335 131.308 378.586 130.318C377.837 129.328 373.204 130.527 367.756 133.829V133.829Z" fill="white"/>
<path d="M353.758 111.154C348.998 114.039 343.25 116.192 341.97 114.502C340.69 112.812 345.058 108.834 349.818 105.95C354.577 103.066 360.326 100.912 361.606 102.602C362.885 104.292 358.517 108.27 353.758 111.154ZM350.203 106.459C344.755 109.762 341.793 113.166 342.542 114.155C343.291 115.145 347.923 113.947 353.372 110.645C358.821 107.343 361.783 103.938 361.034 102.949C360.284 101.959 355.652 103.157 350.203 106.459V106.459Z" fill="white"/>
<path d="M458.351 226.961C464.986 222.94 466.738 214.889 462.265 208.98C457.791 203.071 448.785 201.54 442.149 205.562C435.514 209.583 433.762 217.634 438.235 223.543C442.709 229.452 451.715 230.983 458.351 226.961Z" fill="#2F2E41"/>
<path d="M451.004 226.06L447.131 232.211L450.966 234.127L454.839 227.976L451.004 226.06Z" fill="#2F2E41"/>
<path d="M451.513 233.365C451.505 232.687 449.856 232.158 447.83 232.185C445.804 232.211 444.168 232.783 444.176 233.461C444.184 234.14 445.833 234.668 447.859 234.642C449.885 234.615 451.521 234.044 451.513 233.365Z" fill="#2F2E41"/>
<path d="M460.141 220.522L460.707 224.419L468.529 223.483L467.963 219.586L460.141 220.522Z" fill="#2F2E41"/>
<path d="M470.215 221.093C470.994 219.419 471.057 217.854 470.356 217.595C469.654 217.337 468.454 218.484 467.675 220.158C466.896 221.831 466.833 223.397 467.535 223.655C468.236 223.914 469.436 222.766 470.215 221.093Z" fill="#2F2E41"/>
<path d="M450.196 217.811C452.464 216.436 453.063 213.685 451.534 211.665C450.005 209.646 446.927 209.123 444.659 210.497C442.391 211.871 441.792 214.623 443.321 216.643C444.85 218.662 447.928 219.185 450.196 217.811Z" fill="white"/>
<path d="M447.896 212.847C448.069 212.051 447.482 211.281 446.585 211.129C445.687 210.976 444.819 211.498 444.646 212.295C444.472 213.092 445.059 213.861 445.957 214.014C446.854 214.166 447.722 213.644 447.896 212.847Z" fill="#3F3D56"/>
<path d="M450.915 198.877C448.097 194.806 441.723 193.775 436.679 196.572C431.635 199.37 429.831 204.938 432.649 209.009C435.468 213.08 439.562 211.911 444.606 209.114C449.65 206.316 453.734 202.948 450.915 198.877Z" fill="#6C63FF"/>
<path d="M470.895 211.923C471.228 210.84 468.37 209.206 464.512 208.274C460.654 207.342 457.256 207.464 456.923 208.547C456.59 209.63 459.448 211.264 463.307 212.196C467.165 213.128 470.563 213.006 470.895 211.923Z" fill="#2F2E41"/>
<path d="M441.221 225.581C441.685 222.029 441.05 219.049 439.802 218.923C438.554 218.798 437.167 221.576 436.703 225.127C436.239 228.679 436.875 231.66 438.122 231.785C439.37 231.91 440.758 229.133 441.221 225.581Z" fill="#2F2E41"/>
<path d="M456.742 218.478C457.354 219.035 457.691 219.788 457.681 220.57C457.67 221.352 457.312 222.1 456.686 222.648C456.059 223.197 455.215 223.502 454.34 223.496C453.464 223.49 452.628 223.173 452.017 222.616L452.012 222.612C450.74 221.45 451.535 220.284 452.841 219.143C454.147 218.001 455.47 217.316 456.742 218.478Z" fill="white"/>
<path d="M438.569 239.945C438.418 240.036 438.231 240.071 438.052 240.04C437.872 240.01 437.714 239.917 437.612 239.782L414.859 209.73C414.757 209.594 414.719 209.428 414.754 209.268C414.789 209.107 414.894 208.965 415.046 208.874C415.197 208.782 415.383 208.747 415.563 208.778C415.743 208.808 415.901 208.901 416.003 209.036L438.756 239.089C438.858 239.224 438.896 239.39 438.861 239.55C438.826 239.711 438.721 239.853 438.569 239.945Z" fill="#CCCCCC"/>
<path d="M450.428 272.14C450.277 272.232 450.091 272.267 449.911 272.236C449.731 272.205 449.573 272.112 449.471 271.977L432.889 250.075C432.786 249.94 432.748 249.774 432.783 249.613C432.818 249.453 432.923 249.311 433.075 249.219C433.227 249.127 433.413 249.092 433.592 249.123C433.772 249.153 433.93 249.246 434.032 249.382L450.615 271.284C450.717 271.419 450.755 271.585 450.72 271.746C450.685 271.906 450.58 272.048 450.428 272.14V272.14Z" fill="#CCCCCC"/>
<path d="M458.759 240.712C458.607 240.804 458.421 240.839 458.241 240.808C458.062 240.778 457.903 240.685 457.801 240.55L435.049 210.497C434.946 210.362 434.909 210.196 434.944 210.036C434.978 209.875 435.083 209.733 435.235 209.641C435.387 209.55 435.573 209.515 435.752 209.546C435.932 209.576 436.09 209.669 436.193 209.804L458.945 239.856C459.047 239.992 459.085 240.158 459.05 240.318C459.015 240.479 458.91 240.621 458.759 240.712Z" fill="#CCCCCC"/>
<path d="M466.855 267.386C466.703 267.478 466.517 267.513 466.337 267.482C466.158 267.452 465.999 267.359 465.897 267.224L456.642 254.999C456.54 254.864 456.502 254.698 456.537 254.537C456.572 254.377 456.677 254.235 456.828 254.143C456.98 254.051 457.166 254.017 457.346 254.047C457.525 254.078 457.684 254.171 457.786 254.306L467.041 266.53C467.143 266.666 467.181 266.832 467.146 266.992C467.111 267.153 467.006 267.294 466.855 267.386V267.386Z" fill="#CCCCCC"/>
<path d="M406.598 220.309C406.447 220.401 406.261 220.435 406.081 220.405C405.901 220.374 405.743 220.281 405.641 220.146L396.386 207.922C396.283 207.787 396.246 207.62 396.28 207.46C396.315 207.299 396.42 207.158 396.572 207.066C396.724 206.974 396.91 206.939 397.089 206.97C397.269 207 397.427 207.093 397.53 207.228L406.785 219.453C406.887 219.588 406.925 219.754 406.89 219.915C406.855 220.075 406.75 220.217 406.598 220.309V220.309Z" fill="#CCCCCC"/>
<path d="M485.101 230.321C484.95 230.413 484.763 230.447 484.584 230.417C484.404 230.386 484.246 230.293 484.144 230.158L472.96 215.387C472.858 215.252 472.82 215.085 472.855 214.925C472.89 214.764 472.995 214.623 473.147 214.531C473.298 214.439 473.484 214.404 473.664 214.435C473.844 214.465 474.002 214.558 474.104 214.693L485.288 229.465C485.39 229.6 485.428 229.766 485.393 229.927C485.358 230.087 485.253 230.229 485.101 230.321Z" fill="#CCCCCC"/>
<path d="M483.496 250.242C483.344 250.334 483.158 250.369 482.978 250.338C482.799 250.308 482.64 250.214 482.538 250.079L465.956 228.177C465.854 228.042 465.816 227.876 465.851 227.715C465.886 227.555 465.991 227.413 466.142 227.321C466.294 227.229 466.48 227.194 466.66 227.225C466.839 227.256 466.998 227.349 467.1 227.484L483.682 249.386C483.784 249.521 483.822 249.687 483.787 249.848C483.752 250.008 483.647 250.15 483.496 250.242Z" fill="#CCCCCC"/>
<path d="M457.439 211.418C457.288 211.51 457.102 211.544 456.922 211.514C456.742 211.483 456.584 211.39 456.482 211.255L433.729 181.203C433.627 181.068 433.589 180.901 433.624 180.741C433.659 180.58 433.764 180.439 433.916 180.347C434.067 180.255 434.253 180.22 434.433 180.251C434.613 180.281 434.771 180.374 434.873 180.509L457.626 210.562C457.728 210.697 457.766 210.863 457.731 211.023C457.696 211.184 457.591 211.326 457.439 211.418Z" fill="#CCCCCC"/>
<ellipse cx="361.021" cy="123.593" rx="26.3272" ry="6.5" transform="rotate(-28.662 361.021 123.593)" fill="#D9D9D9"/>
<path d="M887.534 485.657C888.845 484.533 887.073 480.157 883.577 475.882C880.08 471.607 876.183 469.053 874.872 470.176C873.561 471.3 875.333 475.676 878.829 479.951C882.326 484.226 886.223 486.781 887.534 485.657Z" fill="#3F3D56"/>
<path d="M878.936 480.796C882.381 470.217 876.796 458.783 866.461 455.257C856.127 451.731 844.957 457.448 841.512 468.026C838.067 478.605 843.653 490.039 853.987 493.565C864.321 497.091 875.491 491.374 878.936 480.796Z" fill="#3F3D56"/>
<path d="M869 490H863V501H869V490Z" fill="#3F3D56"/>
<path d="M857 490H851V501H857V490Z" fill="#3F3D56"/>
<path d="M864 503C866.761 503 869 502.105 869 501C869 499.895 866.761 499 864 499C861.239 499 859 499.895 859 501C859 502.105 861.239 503 864 503Z" fill="white"/>
<path d="M852 503C854.761 503 857 502.105 857 501C857 499.895 854.761 499 852 499C849.239 499 847 499.895 847 501C847 502.105 849.239 503 852 503Z" fill="white"/>
<path d="M854.279 449.177C856.041 441.811 863.819 437.477 871.651 439.495C879.483 441.514 884.404 449.121 882.642 456.487C880.88 463.852 875.035 463.876 867.202 461.857C859.37 459.839 852.517 456.542 854.279 449.177Z" fill="#C4C4C4"/>
<path d="M846.919 469.369C847.652 467.787 844.256 464.568 839.335 462.179C834.414 459.79 829.83 459.135 829.098 460.717C828.365 462.298 831.76 465.517 836.682 467.906C841.603 470.295 846.186 470.95 846.919 469.369Z" fill="#3F3D56"/>
<path d="M857.5 477C861.09 477 864 473.866 864 470C864 466.134 861.09 463 857.5 463C853.91 463 851 466.134 851 470C851 473.866 853.91 477 857.5 477Z" fill="white"/>
<path d="M854.5 470C855.881 470 857 468.881 857 467.5C857 466.119 855.881 465 854.5 465C853.119 465 852 466.119 852 467.5C852 468.881 853.119 470 854.5 470Z" fill="#3F3D56"/>
<path d="M857 487C858.657 487 860 485.657 860 484C860 482.343 858.657 481 857 481C855.343 481 854 482.343 854 484C854 485.657 855.343 487 857 487Z" fill="white"/>
<path d="M916.542 503H808.458C808.337 503 808.22 502.947 808.134 502.854C808.048 502.76 808 502.633 808 502.5C808 502.367 808.048 502.24 808.134 502.146C808.22 502.053 808.337 502 808.458 502H916.542C916.663 502 916.78 502.053 916.866 502.146C916.952 502.24 917 502.367 917 502.5C917 502.633 916.952 502.76 916.866 502.854C916.78 502.947 916.663 503 916.542 503Z" fill="#3F3D56"/>
</svg>
