<svg width="30" height="30" viewBox="0 0 20 20" fill="none" xmlns="http://www.w3.org/2000/svg">
<path d="M15.7125 20C15.5894 20.0005 15.4682 19.9692 15.3594 19.9091L10 16.9571L4.63969 19.9091C4.51477 19.9776 4.37407 20.0081 4.23346 19.9973C4.09285 19.9864 3.95793 19.9347 3.8439 19.8478C3.72988 19.761 3.64129 19.6425 3.58812 19.5057C3.53496 19.3689 3.51933 19.2193 3.54301 19.0738L4.56705 12.822L0.228738 8.39425C0.127567 8.29105 0.0559898 8.16024 0.0221044 8.01664C-0.0117811 7.87304 -0.00662274 7.72238 0.0369959 7.58169C0.0806146 7.441 0.160953 7.3159 0.268921 7.22055C0.37689 7.1252 0.508181 7.0634 0.64794 7.04214L6.64137 6.13017L9.32154 0.44169C9.38404 0.309103 9.4807 0.197473 9.6006 0.119419C9.7205 0.0413652 9.85886 0 10 0C10.1412 0 10.2796 0.0413652 10.3995 0.119419C10.5194 0.197473 10.616 0.309103 10.6785 0.44169L13.3587 6.13017L19.3516 7.04214C19.4914 7.06332 19.6228 7.12506 19.7308 7.22038C19.8388 7.31569 19.9192 7.44078 19.9629 7.58149C20.0066 7.72219 20.0118 7.87289 19.9779 8.01653C19.9441 8.16017 19.8725 8.29101 19.7713 8.39425L15.433 12.822L16.4571 19.0738C16.4756 19.1875 16.4703 19.3041 16.4414 19.4154C16.4125 19.5267 16.3607 19.6301 16.2897 19.7183C16.2187 19.8065 16.1302 19.8774 16.0303 19.9261C15.9304 19.9747 15.8216 20 15.7115 20H15.7125ZM2.38276 8.37999L5.90638 11.9777C5.994 12.0671 6.0596 12.1775 6.09756 12.2994C6.13551 12.4212 6.14469 12.5509 6.1243 12.6773L5.29246 17.757L9.64691 15.3603C9.75576 15.3002 9.87697 15.2687 10 15.2687C10.1231 15.2687 10.2443 15.3002 10.3532 15.3603L14.7086 17.7586L13.8758 12.6773C13.8551 12.5507 13.864 12.4207 13.9019 12.2986C13.9398 12.1764 14.0054 12.0658 14.0932 11.9761L17.6173 8.37999L12.7478 7.64026C12.6265 7.62178 12.5112 7.57269 12.412 7.49722C12.3128 7.42174 12.2326 7.32214 12.1783 7.207L10 2.5853L7.8223 7.207C7.76794 7.32221 7.68765 7.42185 7.58834 7.49733C7.48904 7.57281 7.3737 7.62186 7.25227 7.64026L2.38276 8.37999Z" fill="#fff"/>
</svg>
