<svg width="15" height="20" viewBox="0 0 15 20" fill="none" xmlns="http://www.w3.org/2000/svg">
<path d="M0.5 19.3749V19.3746V2.49994C0.5 1.96953 0.710711 1.46084 1.08578 1.08577C1.46085 0.710711 1.96956 0.5 2.5 0.5H12.5C13.0304 0.5 13.5391 0.71071 13.9142 1.08577C14.2893 1.46084 14.5 1.96953 14.5 2.49994V19.3746V19.3749C14.5 19.3966 14.4944 19.418 14.4836 19.4368C14.4729 19.4557 14.4575 19.4714 14.4388 19.4825C14.4201 19.4936 14.3989 19.4996 14.3772 19.5C14.3555 19.5004 14.334 19.4951 14.315 19.4847L14.3145 19.4844L7.73948 15.897L7.5 15.7663L7.26052 15.897L0.68552 19.4844L0.685004 19.4847C0.665963 19.4951 0.644533 19.5004 0.622826 19.5C0.601121 19.4996 0.579888 19.4936 0.561219 19.4825C0.542548 19.4714 0.527086 19.4557 0.516354 19.4368C0.50562 19.418 0.499984 19.3966 0.5 19.3749ZM8.625 5.62487C8.625 5.3265 8.50647 5.04036 8.29549 4.82938C8.08451 4.61841 7.79836 4.49989 7.5 4.49989C7.20163 4.49989 6.91549 4.61841 6.70451 4.82938C6.49353 5.04036 6.375 5.3265 6.375 5.62487V6.99983H5C4.70163 6.99983 4.41549 7.11835 4.20451 7.32933C3.99353 7.5403 3.875 7.82645 3.875 8.12481C3.875 8.42318 3.99353 8.70933 4.20451 8.9203C4.41549 9.13128 4.70163 9.2498 5 9.2498H6.375V10.6248C6.375 10.9231 6.49353 11.2093 6.70451 11.4202C6.91549 11.6312 7.20164 11.7497 7.5 11.7497C7.79836 11.7497 8.08451 11.6312 8.29549 11.4202C8.50647 11.2093 8.625 10.9231 8.625 10.6248V9.2498H10C10.2984 9.2498 10.5845 9.13128 10.7955 8.9203C11.0065 8.70933 11.125 8.42318 11.125 8.12481C11.125 7.82645 11.0065 7.5403 10.7955 7.32933C10.5845 7.11835 10.2984 6.99983 10 6.99983H8.625V5.62487Z" fill="#6C63FF" stroke="#303C76" stroke-width="2"/>
</svg>
