<svg width="45" height="45" viewBox="0 0 45 45" fill="none" xmlns="http://www.w3.org/2000/svg">
<path d="M39.6 44.1H4.4C2 44.1 0 42.1 0 39.7V7.39999C0 4.99999 1.6 3 3.7 3H5.9V5.89999H3.7C3.4 5.89999 3 6.49999 3 7.39999V39.7C3 40.5 3.7 41.2 4.5 41.2H39.7C40.5 41.2 41.2 40.5 41.2 39.7V7.39999C41.2 6.49999 40.7 5.89999 40.5 5.89999H38.3V3H40.5C42.5 3 44.2 4.99999 44.2 7.39999V39.7C44 42.1 42 44.1 39.6 44.1Z" fill="white"/>
<path d="M10.2998 8.89999C9.4998 8.89999 8.7998 8.19999 8.7998 7.39999V1.5C8.7998 0.7 9.4998 0 10.2998 0C11.0998 0 11.7998 0.7 11.7998 1.5V7.39999C11.6998 8.19999 11.0998 8.89999 10.2998 8.89999Z" fill="white"/>
<path d="M33.7002 8.89999C32.9002 8.89999 32.2002 8.19999 32.2002 7.39999V1.5C32.2002 0.7 32.9002 0 33.7002 0C34.5002 0 35.2002 0.7 35.2002 1.5V7.39999C35.2002 8.19999 34.5002 8.89999 33.7002 8.89999Z" fill="white"/>
<path d="M14.7002 3H29.3002V6H14.7002V3Z" fill="white"/>
<path d="M2.90039 11.7998H41.1004V14.7998H2.90039V11.7998Z" fill="white"/>
<path d="M35.2002 17.7002H38.1002V20.6002H35.2002V17.7002Z" fill="white"/>
<path d="M29.2998 17.7002H32.2998V20.6002H29.2998V17.7002Z" fill="white"/>
<path d="M23.5 17.7002H26.4V20.6002H23.5V17.7002Z" fill="white"/>
<path d="M17.5996 17.7002H20.4996V20.6002H17.5996V17.7002Z" fill="white"/>
<path d="M11.7002 17.7002H14.7002V20.6002H11.7002V17.7002Z" fill="white"/>
<path d="M35.2002 23.6001H38.1002V26.5001H35.2002V23.6001Z" fill="white"/>
<path d="M29.2998 23.6001H32.2998V26.5001H29.2998V23.6001Z" fill="white"/>
<path d="M23.5 23.6001H26.4V26.5001H23.5V23.6001Z" fill="white"/>
<path d="M17.5996 23.6001H20.4996V26.5001H17.5996V23.6001Z" fill="white"/>
<path d="M11.7002 23.6001H14.7002V26.5001H11.7002V23.6001Z" fill="white"/>
<path d="M5.90039 23.6001H8.80039V26.5001H5.90039V23.6001Z" fill="white"/>
<path d="M35.2002 29.3999H38.1002V32.3999H35.2002V29.3999Z" fill="white"/>
<path d="M29.2998 29.3999H32.2998V32.3999H29.2998V29.3999Z" fill="white"/>
<path d="M23.5 29.3999H26.4V32.3999H23.5V29.3999Z" fill="white"/>
<path d="M17.5996 29.3999H20.4996V32.3999H17.5996V29.3999Z" fill="white"/>
<path d="M11.7002 29.3999H14.7002V32.3999H11.7002V29.3999Z" fill="white"/>
<path d="M5.90039 29.3999H8.80039V32.3999H5.90039V29.3999Z" fill="white"/>
<path d="M29.2998 35.2998H32.2998V38.1998H29.2998V35.2998Z" fill="white"/>
<path d="M23.5 35.2998H26.4V38.1998H23.5V35.2998Z" fill="white"/>
<path d="M17.5996 35.2998H20.4996V38.1998H17.5996V35.2998Z" fill="white"/>
<path d="M11.7002 35.2998H14.7002V38.1998H11.7002V35.2998Z" fill="white"/>
<path d="M5.90039 35.2998H8.80039V38.1998H5.90039V35.2998Z" fill="white"/>
</svg>
