<svg width="19" height="22" viewBox="0 0 19 22" fill="none" xmlns="http://www.w3.org/2000/svg">
<path d="M15.7467 14.3376C14.8186 14.3376 13.9839 14.7974 13.3913 15.5312L6.46646 11.5386C6.49028 11.351 6.50668 11.1611 6.50668 10.9657C6.50668 10.7754 6.49106 10.5897 6.46842 10.4071L13.3831 6.45826C13.9761 7.19801 14.8147 7.66237 15.7467 7.66237C17.5434 7.66237 19 5.947 19 3.83118C19 1.71491 17.5434 0 15.7467 0C13.95 0 12.4933 1.71491 12.4933 3.83118C12.4933 4.02153 12.5089 4.20681 12.5316 4.38979L5.61692 8.33868C5.02388 7.59892 4.18565 7.13456 3.25334 7.13456C1.45625 7.13456 0 8.84993 0 10.9657C0 13.082 1.45625 14.7969 3.25334 14.7969C4.18136 14.7969 5.01607 14.3372 5.60872 13.6034L12.5335 17.596C12.5097 17.7831 12.4933 17.9734 12.4933 18.1688C12.4933 20.2851 13.95 22 15.7467 22C17.5434 22 19 20.2851 19 18.1688C19 16.0525 17.5434 14.3376 15.7467 14.3376Z" fill="#303C76"/>
</svg>
