<svg width="37" height="37" viewBox="0 0 37 37" fill="none" xmlns="http://www.w3.org/2000/svg">
<path d="M35.9 15.35L31.55 14.9C31.25 13.85 30.8 12.8 30.35 11.9L33.05 8.45C33.35 8.15 33.2 7.7 33.05 7.4L29.75 4.1C29.45 3.8 29 3.8 28.7 4.1L25.25 6.8C24.35 6.2 23.3 5.9 22.25 5.6L21.8 1.25C21.5 0.8 21.2 0.5 20.9 0.5H16.25C15.8 0.5 15.5 0.8 15.5 1.1L15.05 5.45C14 5.75 12.95 6.2 12.05 6.65L8.45 4.1C8.15 3.8 7.7 3.95 7.4 4.1L4.1 7.4C3.8 7.7 3.8 8.15 4.1 8.45L6.8 11.9C6.2 12.8 5.9 13.85 5.6 14.9L1.25 15.35C0.8 15.5 0.5 15.8 0.5 16.1V20.75C0.5 21.2 0.8 21.5 1.1 21.5L5.45 21.95C5.75 23 6.2 24.05 6.65 24.95L3.95 28.4C3.65 28.7 3.8 29.15 3.95 29.45L7.25 32.75C7.55 33.05 8 33.05 8.3 32.75L11.75 30.05C12.65 30.65 13.7 30.95 14.75 31.25L15.2 35.6C15.2 36.05 15.5 36.2 15.95 36.2H20.6C21.05 36.2 21.35 35.9 21.35 35.6L21.8 31.25C22.85 30.95 23.9 30.5 24.8 30.05L28.25 32.75C28.55 33.05 29 32.9 29.3 32.75L32.6 29.45C32.9 29.15 32.9 28.7 32.6 28.4L29.9 24.95C30.5 24.05 30.8 23 31.1 21.95L35.45 21.5C35.9 21.5 36.05 21.2 36.05 20.75V16.1C36.5 15.8 36.2 15.5 35.9 15.35ZM18.5 24.5C15.2 24.5 12.5 21.8 12.5 18.5C12.5 15.2 15.2 12.5 18.5 12.5C21.8 12.5 24.5 15.2 24.5 18.5C24.5 21.8 21.8 24.5 18.5 24.5Z" fill="white"/>
</svg>
