<svg width="24" height="21" viewBox="0 0 24 21" fill="none" xmlns="http://www.w3.org/2000/svg">
<path d="M20.9422 3.13786L20.9433 3.13914C22.0512 4.33934 22.6044 5.8073 22.5114 7.57372L22.5108 7.58685V7.6V7.7C22.5108 9.88749 21.2618 12.0323 18.6543 14.0549C16.0462 16.078 12.1351 17.9309 6.96371 19.5221L6.96367 19.522L6.95264 19.5257C6.81709 19.5708 6.74863 19.5859 6.70254 19.5925C6.65555 19.5992 6.61518 19.6 6.51075 19.6C6.40821 19.6 6.35549 19.5658 6.31641 19.5161C6.31253 19.5111 6.3086 19.5058 6.30466 19.5H6.51075H7.01075V19H6.51075H6.22719C6.45205 17.1107 6.19582 15.7752 5.64322 14.697C5.13644 13.7081 4.39184 12.9684 3.67385 12.2551C3.60367 12.1854 3.53373 12.1159 3.4643 12.0464L3.45776 12.0399L3.45098 12.0336C2.07378 10.7548 0.697031 9.36856 0.509775 6.5687C0.418154 5.0021 0.972502 3.44536 2.0643 2.35355L2.07901 2.33885L2.09244 2.32297C3.08655 1.14812 4.64008 0.5 6.21075 0.5H6.31075C8.41725 0.5 10.3506 1.69 11.3678 3.632L11.7354 4.33377L12.2108 3.7C13.327 2.21172 14.9851 1.3 16.8108 1.3H16.9948C18.4727 1.39618 19.9408 2.0455 20.9422 3.13786Z" fill="white" stroke="#3F3D56"/>
</svg>
