<svg width="34" height="30" viewBox="0 0 34 30" fill="none" xmlns="http://www.w3.org/2000/svg">
<path d="M16.9999 0C16.9999 0 6.68992 8.9 0.928252 13.72C0.589919 14.0267 0.333252 14.4733 0.333252 15C0.333252 15.9217 1.07825 16.6667 1.99992 16.6667H5.33325V28.3333C5.33325 29.255 6.07825 30 6.99992 30H11.9999C12.9216 30 13.6666 29.2533 13.6666 28.3333V21.6667H20.3333V28.3333C20.3333 29.2533 21.0783 30 21.9999 30H26.9999C27.9216 30 28.6666 29.255 28.6666 28.3333V16.6667H31.9999C32.9216 16.6667 33.6666 15.9217 33.6666 15C33.6666 14.4733 33.4099 14.0267 33.0283 13.72C27.3066 8.9 16.9999 0 16.9999 0Z" fill="white"/>
</svg>
