<svg width="37" height="36" viewBox="0 0 37 36" fill="none" xmlns="http://www.w3.org/2000/svg">
<path d="M18.5 36C28.7173 36 37 27.9411 37 18C37 8.05888 28.7173 0 18.5 0C8.28273 0 0 8.05888 0 18C0 27.9411 8.28273 36 18.5 36Z" fill="#3F3D56"/>
<path d="M12.001 9.43578V25.5619C11.9955 25.6365 12.0168 25.711 12.0627 25.7772C12.1085 25.8435 12.1772 25.8992 12.2615 25.9384C12.3458 25.9776 12.4424 25.9989 12.5414 26C12.6403 26.001 12.7378 25.9819 12.8235 25.9446L29.7311 17.8815C29.8138 17.8398 29.8816 17.7833 29.9286 17.717C29.9755 17.6507 30 17.5767 30 17.5015C30 17.4263 29.9755 17.3523 29.9286 17.286C29.8816 17.2197 29.8138 17.1632 29.7311 17.1214L12.8235 9.05841C12.7386 9.01997 12.6414 8.99978 12.5424 9C12.4434 9.00023 12.3464 9.02086 12.2618 9.05968C12.1772 9.0985 12.1082 9.15404 12.0622 9.22031C12.0163 9.28659 11.9951 9.36108 12.001 9.43578Z" fill="#F2F2F2"/>
</svg>
