<svg width="31" height="22" viewBox="0 0 31 22" fill="none" xmlns="http://www.w3.org/2000/svg">
<path d="M6.8375 19.8143L5 9.14286L11.5625 11.7143L15.5 4L19.4375 11.7143L26 9.14286L24.1625 19.8143C23.9 21.1 22.85 22 21.5375 22H9.33125C8.15 22 6.96875 21.1 6.8375 19.8143Z" fill="white"/>
<path d="M15.5 6C17.433 6 19 4.65685 19 3C19 1.34315 17.433 0 15.5 0C13.567 0 12 1.34315 12 3C12 4.65685 13.567 6 15.5 6Z" fill="white"/>
<path d="M27.5 11C29.433 11 31 9.65685 31 8C31 6.34315 29.433 5 27.5 5C25.567 5 24 6.34315 24 8C24 9.65685 25.567 11 27.5 11Z" fill="white"/>
<path d="M3.5 11C5.433 11 7 9.65685 7 8C7 6.34315 5.433 5 3.5 5C1.567 5 0 6.34315 0 8C0 9.65685 1.567 11 3.5 11Z" fill="white"/>
</svg>
