<svg width="32" height="40" viewBox="0 0 32 40" fill="none" xmlns="http://www.w3.org/2000/svg">
<path d="M0 20C0 20.5304 0.210714 21.0391 0.585787 21.4142C0.96086 21.7893 1.46957 22 2 22H17.18L12.58 26.58C12.3925 26.7659 12.2438 26.9871 12.1422 27.2308C12.0407 27.4746 11.9884 27.736 11.9884 28C11.9884 28.264 12.0407 28.5254 12.1422 28.7692C12.2438 29.0129 12.3925 29.2341 12.58 29.42C12.7659 29.6075 12.9871 29.7562 13.2308 29.8578C13.4746 29.9593 13.736 30.0116 14 30.0116C14.264 30.0116 14.5254 29.9593 14.7692 29.8578C15.0129 29.7562 15.2341 29.6075 15.42 29.42L23.42 21.42C23.6021 21.2298 23.7448 21.0055 23.84 20.76C24.04 20.2731 24.04 19.7269 23.84 19.24C23.7448 18.9945 23.6021 18.7702 23.42 18.58L15.42 10.58C15.2335 10.3935 15.0121 10.2456 14.7685 10.1447C14.5249 10.0438 14.2637 9.99182 14 9.99182C13.7363 9.99182 13.4751 10.0438 13.2315 10.1447C12.9879 10.2456 12.7665 10.3935 12.58 10.58C12.3935 10.7665 12.2456 10.9879 12.1447 11.2315C12.0438 11.4751 11.9918 11.7363 11.9918 12C11.9918 12.2637 12.0438 12.5249 12.1447 12.7685C12.2456 13.0121 12.3935 13.2335 12.58 13.42L17.18 18H2C1.46957 18 0.96086 18.2107 0.585787 18.5858C0.210714 18.9609 0 19.4696 0 20ZM26 0H6C4.4087 0 2.88258 0.632141 1.75736 1.75736C0.632141 2.88258 0 4.4087 0 6V12C0 12.5304 0.210714 13.0391 0.585787 13.4142C0.96086 13.7893 1.46957 14 2 14C2.53043 14 3.03914 13.7893 3.41421 13.4142C3.78929 13.0391 4 12.5304 4 12V6C4 5.46957 4.21071 4.96086 4.58579 4.58579C4.96086 4.21071 5.46957 4 6 4H26C26.5304 4 27.0391 4.21071 27.4142 4.58579C27.7893 4.96086 28 5.46957 28 6V34C28 34.5304 27.7893 35.0391 27.4142 35.4142C27.0391 35.7893 26.5304 36 26 36H6C5.46957 36 4.96086 35.7893 4.58579 35.4142C4.21071 35.0391 4 34.5304 4 34V28C4 27.4696 3.78929 26.9609 3.41421 26.5858C3.03914 26.2107 2.53043 26 2 26C1.46957 26 0.96086 26.2107 0.585787 26.5858C0.210714 26.9609 0 27.4696 0 28V34C0 35.5913 0.632141 37.1174 1.75736 38.2426C2.88258 39.3679 4.4087 40 6 40H26C27.5913 40 29.1174 39.3679 30.2426 38.2426C31.3679 37.1174 32 35.5913 32 34V6C32 4.4087 31.3679 2.88258 30.2426 1.75736C29.1174 0.632141 27.5913 0 26 0Z" fill="#6C63FF"/>
</svg>
