<svg width="45" height="45" viewBox="0 0 45 45" fill="none" xmlns="http://www.w3.org/2000/svg">
<path d="M32.8711 27.4219C34.6289 24.6562 35.6602 21.375 35.6602 17.8477C35.6602 7.99219 27.6797 0 17.8359 0C7.98047 0 0 7.99219 0 17.8477C0 27.7031 7.98047 35.6953 17.8242 35.6953C21.3984 35.6953 24.7266 34.6406 27.5156 32.8359L28.3242 32.2734L41.0508 45L45 40.9805L32.2852 28.2539L32.8711 27.4219ZM27.8203 7.875C30.4805 10.5352 31.9453 14.0742 31.9453 17.8359C31.9453 21.5977 30.4805 25.1367 27.8203 27.7969C25.1602 30.457 21.6211 31.9219 17.8594 31.9219C14.0977 31.9219 10.5586 30.457 7.89844 27.7969C5.23828 25.1367 3.77344 21.5977 3.77344 17.8359C3.77344 14.0742 5.23828 10.5352 7.89844 7.875C10.5586 5.21484 14.0977 3.75 17.8594 3.75C21.6211 3.75 25.1602 5.21484 27.8203 7.875Z" fill="white"/>
</svg>
