<svg width="15" height="20" viewBox="0 0 15 20" fill="none" xmlns="http://www.w3.org/2000/svg">
<path d="M13.3333 0H1.66667C1.22464 0 0.800716 0.16857 0.488155 0.468626C0.175595 0.768683 0 1.17565 0 1.59999V19.1999C0.000796807 19.3423 0.0406979 19.482 0.11568 19.6049C0.190662 19.7278 0.298073 19.8296 0.427083 19.8999C0.550673 19.9677 0.691015 20.0022 0.833333 19.9999C0.988016 20.0002 1.13965 19.9586 1.27083 19.8799L7.5 16.1399L13.7187 19.8799C13.8471 19.954 13.9933 19.9948 14.1431 19.9983C14.2928 20.0018 14.4409 19.9679 14.5729 19.8999C14.7019 19.8296 14.8093 19.7278 14.8843 19.6049C14.9593 19.482 14.9992 19.3423 15 19.1999V1.59999C15 1.17565 14.8244 0.768683 14.5118 0.468626C14.1993 0.16857 13.7754 0 13.3333 0V0Z" fill="#303C76"/>
</svg>
