<svg width="700" height="680" viewBox="0 0 743 943" fill="none" xmlns="http://www.w3.org/2000/svg">
<path d="M42 74.7622C42.6098 62.8419 47.6682 51.6156 56.1318 43.3986C64.5955 35.1816 75.8189 30.6005 87.4874 30.6003C88.8718 30.6003 90.2388 30.6742 91.5917 30.7979C96.9128 21.4333 104.542 13.6607 113.719 8.25633C122.895 2.85201 133.297 0.00512818 143.885 6.92169e-06C154.474 -0.00511433 164.878 2.83171 174.059 8.22715C183.241 13.6226 190.878 21.3878 196.207 30.7473C197.349 30.6596 198.498 30.6003 199.661 30.6003C211.33 30.6006 222.553 35.1816 231.017 43.3986C239.48 51.6156 244.539 62.8419 245.148 74.7622" fill="#F2F2F2"/>
<path d="M447 221.762C447.61 209.842 452.668 198.616 461.132 190.399C469.595 182.182 480.819 177.601 492.487 177.6C493.872 177.6 495.239 177.674 496.592 177.798C501.913 168.433 509.542 160.661 518.719 155.256C527.895 149.852 538.297 147.005 548.885 147C559.474 146.995 569.878 149.832 579.059 155.227C588.241 160.623 595.878 168.388 601.207 177.747C602.349 177.66 603.498 177.6 604.661 177.6C616.33 177.601 627.553 182.182 636.017 190.399C644.48 198.616 649.539 209.842 650.148 221.762" fill="#F2F2F2"/>
<path d="M64.3814 802.377C58.4592 823.977 67.6504 846.061 67.6504 846.061C67.6504 846.061 86.4433 833.124 92.3655 811.524C98.2877 789.924 89.0965 767.84 89.0965 767.84C89.0965 767.84 70.3036 780.777 64.3814 802.377Z" fill="#F2F2F2"/>
<path d="M73.3732 802.961C78.3575 824.842 68.2244 846.428 68.2244 846.428C68.2244 846.428 50.0099 832.54 45.0256 810.66C40.0413 788.779 50.1744 767.193 50.1744 767.193C50.1744 767.193 68.3888 781.081 73.3732 802.961Z" fill="#F2F2F2"/>
<path d="M369.579 824.688L373.349 814.101L337.743 793.187L332.18 808.812L369.579 824.688Z" fill="#FFB8B8"/>
<path d="M389.777 797.069C388.179 796.39 386.474 796.061 384.759 796.102C383.045 796.143 381.355 796.552 379.785 797.306C378.216 798.06 376.798 799.145 375.612 800.498C374.427 801.851 373.498 803.446 372.877 805.191L370.334 812.328L366.413 823.344L365.455 826.045L378.019 831.382L390.172 797.241L389.777 797.069Z" fill="#2F2E41"/>
<path d="M366.415 804.313L364.775 809.06L360.684 820.908L360.586 821.205C350.161 822.667 338.733 819.8 328.163 815.346C323.934 813.565 319.792 811.547 315.753 809.3C309.776 806.002 304.424 802.522 300.154 799.545C293.725 795.04 289.75 791.657 289.75 791.657C289.75 791.657 288.7 792.694 286.8 794.47C284.253 796.85 280.183 800.565 275.028 804.939C273.061 806.619 270.95 808.377 268.693 810.211C252.061 823.682 230.715 787.738 230.715 787.738C230.715 787.738 236.719 783.565 238.287 782.754C243.337 780.146 255.201 773.99 265.436 768.52C270.709 765.698 275.544 763.051 278.79 761.171C290.285 754.489 304.573 767.132 304.573 767.132L366.415 804.313Z" fill="#2F2E41"/>
<path opacity="0.14" d="M366.415 804.313L364.775 809.06L360.684 820.908L360.586 821.205C350.161 822.667 338.733 819.8 328.163 815.346C323.934 813.565 319.792 811.547 315.753 809.3C309.776 806.002 304.424 802.522 300.154 799.545C293.725 795.04 289.75 791.657 289.75 791.657C289.75 791.657 288.7 792.694 286.8 794.47C284.253 796.85 280.183 800.565 275.028 804.939C273.061 806.619 270.95 808.377 268.693 810.211C252.061 823.682 230.715 787.738 230.715 787.738C230.715 787.738 236.719 783.565 238.287 782.754C243.337 780.146 255.201 773.99 265.436 768.52C270.709 765.698 275.544 763.051 278.79 761.171C290.285 754.489 304.573 767.132 304.573 767.132L366.415 804.313Z" fill="black"/>
<path d="M155.778 552.298C236.532 552.298 301.996 480.82 301.996 392.649C301.996 304.477 236.532 233 155.778 233C75.0247 233 9.56085 304.477 9.56085 392.649C9.56085 480.82 75.0247 552.298 155.778 552.298Z" fill="#6C63FF"/>
<path opacity="0.2" d="M47.816 286.016C34.1772 320.85 32.327 359.845 42.5961 396.031C52.8651 432.218 74.5843 463.238 103.872 483.55C133.161 503.862 168.109 512.14 202.473 506.907C236.837 501.674 268.377 483.27 291.458 454.983C283.126 476.266 270.656 495.316 254.912 510.814C239.168 526.312 220.527 537.887 200.279 544.738C180.031 551.588 158.661 553.551 137.649 550.488C116.638 547.426 96.4876 539.413 78.5941 527.004C60.7007 514.594 45.4921 498.086 34.0221 478.622C22.5521 459.158 15.095 437.204 12.1673 414.281C9.23966 391.358 10.9115 368.013 17.067 345.866C23.2225 323.718 33.7145 303.297 47.816 286.016Z" fill="black"/>
<path d="M156.18 392.648H156.582L163.813 845.279H148.548L156.18 392.648Z" fill="#3F3D56"/>
<path d="M133.672 597.928L130.303 604.913L154.473 618.807L157.842 611.822L133.672 597.928Z" fill="#3F3D56"/>
<path d="M649.151 847.081H0.848564C0.623511 847.081 0.407675 846.983 0.248538 846.809C0.0894014 846.636 0 846.4 0 846.154C0 845.909 0.0894014 845.673 0.248538 845.499C0.407675 845.325 0.623511 845.228 0.848564 845.228H649.151C649.376 845.228 649.592 845.325 649.751 845.499C649.911 845.673 650 845.909 650 846.154C650 846.4 649.911 846.636 649.751 846.809C649.592 846.983 649.376 847.081 649.151 847.081Z" fill="#3F3D56"/>
<path d="M200.046 704.665H150.829C149.816 704.664 148.846 704.224 148.13 703.443C147.414 702.661 147.011 701.601 147.01 700.496V677.333C147.01 669.101 150.005 661.207 155.336 655.386C160.667 649.565 167.898 646.295 175.437 646.295C182.976 646.295 190.207 649.565 195.538 655.386C200.869 661.207 203.864 669.101 203.864 677.333V700.496C203.863 701.601 203.46 702.661 202.744 703.443C202.029 704.224 201.058 704.664 200.046 704.665Z" fill="#2F2E41"/>
<path d="M246.85 733.76C245.705 733.979 244.617 734.47 243.664 735.199C242.711 735.927 241.916 736.875 241.334 737.975C240.753 739.075 240.4 740.301 240.299 741.566C240.199 742.832 240.354 744.106 240.753 745.299L227.37 758.738L232.866 769.61L251.522 750.341C253.313 749.476 254.751 747.923 255.564 745.978C256.376 744.032 256.507 741.829 255.931 739.785C255.356 737.741 254.113 735.999 252.439 734.888C250.766 733.778 248.777 733.376 246.85 733.76Z" fill="#FFB8B8"/>
<path d="M206.581 794.865C205.977 794.865 205.371 794.836 204.765 794.779C201.155 794.45 197.68 793.125 194.667 790.928C191.655 788.732 189.203 785.735 187.541 782.22L166.1 737.161C164.695 734.209 164.387 730.778 165.239 727.584C166.091 724.39 168.039 721.677 170.676 720.01C173.314 718.344 176.438 717.852 179.4 718.636C182.361 719.421 184.931 721.421 186.576 724.222L206.357 772.682L233.272 748.804L248.857 755.428L222.538 787.154C220.514 789.579 218.051 791.517 215.303 792.844C212.556 794.172 209.585 794.86 206.581 794.865V794.865Z" fill="#CCCCCC"/>
<path d="M285.893 725.242L262.047 699.205C261.212 698.295 260.081 697.783 258.901 697.783C257.722 697.783 256.59 698.295 255.756 699.205L234.304 722.627C233.47 723.538 233.002 724.774 233.002 726.062C233.002 727.35 233.47 728.585 234.304 729.496L256.585 753.823C257.379 754.69 258.445 755.197 259.568 755.242C260.691 755.287 261.788 754.866 262.638 754.064L285.655 732.351C286.097 731.934 286.46 731.426 286.722 730.856C286.984 730.286 287.141 729.666 287.184 729.03C287.226 728.394 287.154 727.755 286.97 727.149C286.786 726.544 286.495 725.984 286.113 725.501C286.043 725.412 285.969 725.325 285.893 725.242Z" fill="#3F3D56"/>
<path d="M282.517 729.808L257.971 703.008L237.715 725.125L261.308 750.884L282.517 729.808Z" fill="#F2F2F2"/>
<path d="M259.711 737.608C265.216 737.608 269.679 732.735 269.679 726.725C269.679 720.714 265.216 715.842 259.711 715.842C254.207 715.842 249.744 720.714 249.744 726.725C249.744 732.735 254.207 737.608 259.711 737.608Z" fill="#6C63FF"/>
<path opacity="0.1" d="M264.148 736.001C265.815 734.29 266.893 732.005 267.2 729.53C267.507 727.054 267.024 724.539 265.833 722.406C264.643 720.273 262.816 718.652 260.66 717.815C258.505 716.978 256.151 716.977 253.994 717.811C255.159 716.92 256.485 716.312 257.884 716.027C259.282 715.743 260.72 715.788 262.101 716.16C263.482 716.533 264.774 717.223 265.89 718.186C267.006 719.149 267.92 720.361 268.572 721.742C269.223 723.122 269.596 724.639 269.666 726.19C269.736 727.741 269.501 729.291 268.977 730.735C268.453 732.179 267.652 733.483 266.628 734.561C265.604 735.639 264.38 736.465 263.04 736.983C263.43 736.685 263.8 736.356 264.148 736.001Z" fill="black"/>
<path d="M254.811 724.562C253.622 725.782 253.559 730.171 255.374 732.28C257.189 734.389 260.195 733.419 261.383 732.2C262.572 730.98 261.494 729.973 259.679 727.864C257.864 725.755 256 723.343 254.811 724.562Z" fill="#F2F2F2"/>
<path d="M264.929 730.127C266.56 730.127 267.883 728.683 267.883 726.902C267.883 725.121 266.56 723.678 264.929 723.678C263.298 723.678 261.976 725.121 261.976 726.902C261.976 728.683 263.298 730.127 264.929 730.127Z" fill="#2F2E41"/>
<path d="M259.621 723.958C261.252 723.958 262.574 722.515 262.574 720.734C262.574 718.953 261.252 717.509 259.621 717.509C257.99 717.509 256.668 718.953 256.668 720.734C256.668 722.515 257.99 723.958 259.621 723.958Z" fill="#2F2E41"/>
<path d="M264.929 727.708C265.337 727.708 265.668 727.348 265.668 726.902C265.668 726.457 265.337 726.096 264.929 726.096C264.522 726.096 264.191 726.457 264.191 726.902C264.191 727.348 264.522 727.708 264.929 727.708Z" fill="#F2F2F2"/>
<path d="M265.247 725.32C265.451 725.32 265.616 725.14 265.616 724.917C265.616 724.694 265.451 724.514 265.247 724.514C265.043 724.514 264.878 724.694 264.878 724.917C264.878 725.14 265.043 725.32 265.247 725.32Z" fill="#F2F2F2"/>
<path d="M259.939 719.152C260.143 719.152 260.308 718.971 260.308 718.748C260.308 718.526 260.143 718.345 259.939 718.345C259.735 718.345 259.57 718.526 259.57 718.748C259.57 718.971 259.735 719.152 259.939 719.152Z" fill="#F2F2F2"/>
<path d="M259.621 721.54C260.029 721.54 260.359 721.179 260.359 720.734C260.359 720.289 260.029 719.928 259.621 719.928C259.213 719.928 258.883 720.289 258.883 720.734C258.883 721.179 259.213 721.54 259.621 721.54Z" fill="#F2F2F2"/>
<path d="M366.571 839.578L371.074 829.339L337.046 805.5L330.399 820.612L366.571 839.578Z" fill="#FFB8B8"/>
<path d="M388.653 813.736C387.107 812.924 385.43 812.454 383.718 812.35C382.006 812.247 380.292 812.513 378.674 813.134C377.056 813.754 375.566 814.716 374.289 815.966C373.012 817.215 371.973 818.728 371.232 820.416L368.194 827.318L363.51 837.973L362.364 840.586L374.515 846.96L389.034 813.939L388.653 813.736Z" fill="#2F2E41"/>
<path d="M364.85 818.998L362.882 823.594L357.968 835.064L357.85 835.351C347.353 835.935 336.161 832.118 325.935 826.79C321.844 824.66 317.856 822.3 313.988 819.721C308.26 815.931 303.168 812.012 299.121 808.686C293.028 803.655 289.303 799.949 289.303 799.949C289.303 799.949 288.183 800.894 286.163 802.506C283.456 804.665 279.137 808.028 273.689 811.957C271.61 813.467 269.381 815.042 267.003 816.682C249.471 828.717 224.54 843.375 203.335 846.469C166.091 851.908 174.857 797.642 174.857 797.642L204.497 780.835L217.082 783.624L231.091 786.718L236.055 787.821C236.055 787.821 236.997 787.432 238.618 786.756C243.837 784.578 256.098 779.436 266.689 774.841C272.145 772.469 277.151 770.236 280.52 768.633C292.451 762.935 305.807 776.74 305.807 776.74L364.85 818.998Z" fill="#2F2E41"/>
<path d="M120.619 847.765C121.753 847.481 122.816 846.929 123.733 846.148C124.65 845.367 125.399 844.375 125.928 843.244C126.456 842.112 126.751 840.868 126.792 839.599C126.832 838.329 126.617 837.066 126.162 835.897L138.891 821.72L132.886 811.173L115.168 831.469C113.421 832.435 112.058 834.066 111.339 836.055C110.619 838.044 110.593 840.252 111.265 842.26C111.936 844.269 113.26 845.939 114.984 846.953C116.708 847.968 118.713 848.257 120.619 847.765L120.619 847.765Z" fill="#FFB8B8"/>
<path d="M182.406 705.7C193.365 705.7 202.25 695.999 202.25 684.032C202.25 672.065 193.365 662.364 182.406 662.364C171.446 662.364 162.561 672.065 162.561 684.032C162.561 695.999 171.446 705.7 182.406 705.7Z" fill="#FFB8B8"/>
<path d="M156.588 744.179L173.875 797.69L173.771 797.877C171.367 802.217 170.581 805.718 171.499 808.001C171.741 808.581 172.095 809.097 172.537 809.514C172.979 809.93 173.499 810.237 174.06 810.413L214.969 779.193L213.536 766.68L213.616 766.54C217.57 759.633 218.85 753.377 217.422 747.948C215.568 740.902 209.678 737.704 209.619 737.672L209.477 737.55L189.073 710.435L161.798 715.726L156.588 744.179Z" fill="#CCCCCC"/>
<path d="M130.3 838.104L118.719 822.542L146.636 772.223L159.652 728.295L160.056 728.437L159.652 728.295C160.363 725.895 161.537 723.69 163.095 721.827C164.652 719.965 166.558 718.488 168.682 717.498C170.807 716.507 173.101 716.025 175.41 716.085C177.72 716.144 179.991 716.744 182.07 717.842C184.149 718.941 185.989 720.514 187.464 722.454C188.94 724.395 190.018 726.658 190.624 729.092C191.231 731.526 191.353 734.073 190.982 736.563C190.61 739.052 189.755 741.426 188.472 743.524L164.577 782.612L130.3 838.104Z" fill="#CCCCCC"/>
<path d="M210.589 679.65H180.494L180.186 674.932L178.643 679.65H174.009L173.397 670.299L170.339 679.65H161.372V679.186C161.379 672.677 163.75 666.436 167.966 661.833C172.182 657.23 177.897 654.641 183.859 654.634H188.102C194.064 654.641 199.78 657.23 203.996 661.833C208.211 666.436 210.582 672.677 210.589 679.186V679.65Z" fill="#2F2E41"/>
<path d="M180.248 708.989C180.022 708.989 179.795 708.967 179.572 708.924L157.536 704.679V664.913H181.794L181.193 665.678C172.837 676.318 179.132 693.571 183.629 702.909C183.96 703.593 184.108 704.365 184.055 705.137C184.002 705.908 183.751 706.648 183.33 707.27C182.977 707.802 182.514 708.236 181.978 708.535C181.443 708.833 180.85 708.989 180.248 708.989V708.989Z" fill="#2F2E41"/>
<path d="M499.074 639.451C552.5 639.451 595.81 592.162 595.81 533.829C595.81 475.495 552.5 428.206 499.074 428.206C445.648 428.206 402.337 475.495 402.337 533.829C402.337 592.162 445.648 639.451 499.074 639.451Z" fill="#3F3D56"/>
<path d="M474.341 492.774V582.637C474.319 583.053 474.402 583.468 474.579 583.837C474.756 584.207 475.021 584.517 475.346 584.735C475.671 584.954 476.044 585.072 476.426 585.078C476.808 585.084 477.184 584.978 477.514 584.77L542.755 539.838C543.074 539.605 543.336 539.29 543.517 538.921C543.698 538.552 543.792 538.139 543.792 537.72C543.792 537.301 543.698 536.889 543.517 536.519C543.336 536.15 543.074 535.835 542.755 535.602L477.514 490.671C477.187 490.457 476.812 490.344 476.43 490.345C476.048 490.346 475.674 490.461 475.347 490.678C475.021 490.894 474.754 491.204 474.577 491.573C474.4 491.942 474.318 492.357 474.341 492.774V492.774Z" fill="#F2F2F2"/>
<path d="M256.588 902.214C387.253 902.214 493.177 889.406 493.177 873.607C493.177 857.808 387.253 845 256.588 845C125.924 845 20 857.808 20 873.607C20 889.406 125.924 902.214 256.588 902.214Z" fill="#3F3D56"/>
<path opacity="0.1" d="M493.177 872.77C493.177 888.569 383.497 942.698 252.833 942.698C122.169 942.698 20 888.569 20 872.77C20 856.97 122.169 885.484 252.833 885.484C383.497 885.484 493.177 856.97 493.177 872.77Z" fill="black"/>
<path d="M701.042 761.168L715.368 748.193C686.928 742.819 658.385 768.231 650.937 805.226C650.689 805.275 650.444 805.337 650.202 805.412L634.047 751.597C632.858 757.998 632.33 764.507 632.471 771.019L619.873 746.171C614.782 773.967 626.904 799.794 647.255 805.984C645.556 805.987 643.859 805.863 642.177 805.614C642.1 805.602 642.046 805.594 642.046 805.594C641.916 806.966 641.955 808.349 642.161 809.71C642.25 810.473 642.571 811.189 643.079 811.758C643.701 812.324 645.453 813.106 647.749 813.913C647.925 813.975 648.105 814.037 648.288 814.099C649.75 814.598 651.402 815.1 653.106 815.562C655.236 816.14 657.448 816.655 659.476 817.021C659.696 817.061 659.898 817.086 660.089 817.102C660.15 817.107 660.204 817.106 660.262 817.109C660.386 817.115 660.506 817.118 660.617 817.114C660.678 817.111 660.733 817.105 660.79 817.099C660.883 817.091 660.975 817.078 661.067 817.059C661.118 817.049 661.167 817.036 661.214 817.023C661.292 817.001 661.369 816.974 661.443 816.941C661.482 816.924 661.522 816.907 661.558 816.888C661.626 816.85 661.692 816.806 661.753 816.757C661.778 816.737 661.805 816.719 661.828 816.698C661.899 816.633 661.962 816.56 662.016 816.48C662.021 816.472 662.028 816.466 662.033 816.458C662.093 816.364 662.143 816.263 662.179 816.156C662.182 816.149 662.183 816.141 662.185 816.134C662.22 816.032 662.245 815.926 662.261 815.819C662.262 815.812 662.265 815.805 662.266 815.798L662.263 815.802C662.633 813.321 659.212 808.072 659.168 806.586C659.126 805.164 655.693 804.782 652.889 804.975L705.603 761.754C704.095 761.47 702.572 761.274 701.042 761.168V761.168Z" fill="#F2F2F2"/>
<path d="M742.446 812.976C742.446 819.435 697.606 841.564 644.188 841.564C590.769 841.564 549 819.435 549 812.976C549 806.517 590.769 818.174 644.188 818.174C697.606 818.174 742.446 806.517 742.446 812.976Z" fill="#3F3D56"/>
<path opacity="0.1" d="M742.446 812.976C742.446 819.435 697.606 841.564 644.188 841.564C590.769 841.564 549 819.435 549 812.976C549 806.517 590.769 818.174 644.188 818.174C697.606 818.174 742.446 806.517 742.446 812.976Z" fill="black"/>
<path d="M645.723 824.671C699.142 824.671 742.446 819.435 742.446 812.976C742.446 806.517 699.142 801.281 645.723 801.281C592.304 801.281 549 806.517 549 812.976C549 819.435 592.304 824.671 645.723 824.671Z" fill="#3F3D56"/>
<path opacity="0.1" d="M645.687 819.955C657.138 819.955 666.421 816.812 666.421 812.935C666.421 809.058 657.138 805.915 645.687 805.915C634.236 805.915 624.953 809.058 624.953 812.935C624.953 816.812 634.236 819.955 645.687 819.955Z" fill="black"/>
<path d="M602.575 754.752C602.575 784.557 620.984 808.674 643.734 808.674Z" fill="#3F3D56"/>
<path d="M643.734 808.674C643.734 778.535 664.277 754.146 689.665 754.146Z" fill="#6C63FF"/>
<path d="M617.488 757.454C617.488 785.765 629.227 808.674 643.734 808.674Z" fill="#6C63FF"/>
<path d="M643.734 808.674C643.734 770.163 667.479 739 696.823 739Z" fill="#3F3D56"/>
<path d="M635.075 809.054C635.075 809.054 640.912 808.871 642.671 807.599C644.43 806.327 651.65 804.808 652.086 806.848C652.523 808.889 660.858 816.997 654.268 817.051C647.679 817.105 638.956 816.008 637.201 814.922C635.445 813.835 635.075 809.054 635.075 809.054Z" fill="#A8A8A8"/>
<path opacity="0.2" d="M654.386 816.34C647.796 816.394 639.074 815.298 637.318 814.211C635.981 813.384 635.448 810.416 635.27 809.046C635.147 809.052 635.075 809.054 635.075 809.054C635.075 809.054 635.445 813.836 637.201 814.922C638.956 816.008 647.679 817.105 654.268 817.051C656.171 817.035 656.828 816.348 656.792 815.33C656.527 815.945 655.802 816.329 654.386 816.34Z" fill="black"/>
<path d="M701.042 761.168L715.368 748.193C686.928 742.819 658.385 768.231 650.937 805.226C650.689 805.275 650.444 805.337 650.202 805.412L634.047 751.597C632.858 757.998 632.33 764.507 632.471 771.019L619.873 746.171C614.782 773.967 626.904 799.794 647.255 805.984C645.556 805.987 643.859 805.863 642.177 805.614C642.1 805.602 642.046 805.594 642.046 805.594C641.916 806.966 641.955 808.349 642.161 809.71C642.25 810.473 642.571 811.189 643.079 811.758C643.701 812.324 645.453 813.106 647.749 813.913C647.925 813.975 648.105 814.037 648.288 814.099C649.75 814.598 651.402 815.1 653.106 815.562C655.236 816.14 657.448 816.655 659.476 817.021C659.696 817.061 659.898 817.086 660.089 817.102C660.15 817.107 660.204 817.106 660.262 817.109C660.386 817.115 660.506 817.118 660.617 817.114C660.678 817.111 660.733 817.105 660.79 817.099C660.883 817.091 660.975 817.078 661.067 817.059C661.118 817.049 661.167 817.036 661.214 817.023C661.292 817.001 661.369 816.974 661.443 816.941C661.482 816.924 661.522 816.907 661.558 816.888C661.626 816.85 661.692 816.806 661.753 816.757C661.778 816.737 661.805 816.719 661.828 816.698C661.899 816.633 661.962 816.56 662.016 816.48C662.021 816.472 662.028 816.466 662.033 816.458C662.093 816.364 662.143 816.263 662.179 816.156C662.182 816.149 662.183 816.141 662.185 816.134C662.22 816.032 662.245 815.926 662.261 815.819C662.262 815.812 662.265 815.805 662.266 815.798L662.263 815.802C662.633 813.321 659.212 808.072 659.168 806.586C659.126 805.164 655.693 804.782 652.889 804.975L705.603 761.754C704.095 761.47 702.572 761.274 701.042 761.168V761.168Z" fill="#F2F2F2"/>
<path d="M742.446 812.976C742.446 819.435 697.606 841.564 644.188 841.564C590.769 841.564 549 819.435 549 812.976C549 806.517 590.769 818.174 644.188 818.174C697.606 818.174 742.446 806.517 742.446 812.976Z" fill="#3F3D56"/>
<path opacity="0.1" d="M742.446 812.976C742.446 819.435 697.606 841.564 644.188 841.564C590.769 841.564 549 819.435 549 812.976C549 806.517 590.769 818.174 644.188 818.174C697.606 818.174 742.446 806.517 742.446 812.976Z" fill="black"/>
<path d="M645.723 824.671C699.142 824.671 742.446 819.435 742.446 812.976C742.446 806.517 699.142 801.281 645.723 801.281C592.304 801.281 549 806.517 549 812.976C549 819.435 592.304 824.671 645.723 824.671Z" fill="#3F3D56"/>
<path opacity="0.1" d="M645.687 819.955C657.138 819.955 666.421 816.812 666.421 812.935C666.421 809.058 657.138 805.915 645.687 805.915C634.236 805.915 624.953 809.058 624.953 812.935C624.953 816.812 634.236 819.955 645.687 819.955Z" fill="black"/>
<path d="M602.575 754.752C602.575 784.557 620.984 808.674 643.734 808.674Z" fill="#3F3D56"/>
<path d="M643.734 808.674C643.734 778.535 664.277 754.146 689.665 754.146Z" fill="#6C63FF"/>
<path d="M617.488 757.454C617.488 785.765 629.227 808.674 643.734 808.674Z" fill="#6C63FF"/>
<path d="M643.734 808.674C643.734 770.163 667.479 739 696.823 739Z" fill="#3F3D56"/>
<path d="M635.075 809.054C635.075 809.054 640.912 808.871 642.671 807.599C644.43 806.327 651.65 804.808 652.086 806.848C652.523 808.889 660.858 816.997 654.268 817.051C647.679 817.105 638.956 816.008 637.201 814.922C635.445 813.835 635.075 809.054 635.075 809.054Z" fill="#A8A8A8"/>
<path opacity="0.2" d="M654.386 816.34C647.796 816.394 639.074 815.298 637.318 814.211C635.981 813.384 635.448 810.416 635.27 809.046C635.147 809.052 635.075 809.054 635.075 809.054C635.075 809.054 635.445 813.836 637.201 814.922C638.956 816.008 647.679 817.105 654.268 817.051C656.171 817.035 656.828 816.348 656.792 815.33C656.527 815.945 655.802 816.329 654.386 816.34Z" fill="black"/>
</svg>
