<svg width="22" height="25" viewBox="0 0 22 25" fill="none" xmlns="http://www.w3.org/2000/svg">
<path d="M21.1302 19.1955C21.1278 19.3639 21.0822 19.5288 20.9978 19.6745C20.9133 19.8202 20.7929 19.9418 20.648 20.0276C20.5031 20.1134 20.3386 20.1605 20.1702 20.1646L21.1302 19.1955ZM21.1302 19.1955C21.1321 19.0681 21.1091 18.9419 21.063 18.8238L21.1302 19.1955ZM20.4066 18.7808C20.4759 18.8218 20.5331 18.8804 20.5725 18.9506L20.572 18.9511C20.6114 19.0239 20.6315 19.1056 20.6303 19.1883L20.6303 19.1884C20.6291 19.2711 20.6067 19.3521 20.5652 19.4237L20.5651 19.4238C20.5236 19.4955 20.4645 19.5552 20.3933 19.5973L20.3932 19.5974C20.3234 19.6387 20.2444 19.6618 20.1632 19.6646H0.967892C0.865083 19.6627 0.765566 19.6276 0.684264 19.5644L0.684193 19.5644C0.602292 19.5008 0.543346 19.4122 0.516369 19.3119C0.489397 19.2116 0.495889 19.1054 0.53487 19.0091C0.573834 18.9129 0.643135 18.8321 0.732234 18.7789L0.73321 18.7783L1.79083 18.1436L1.79117 18.1433C2.27788 17.8507 2.68059 17.4371 2.96015 16.9428C3.2397 16.4484 3.38659 15.8902 3.38654 15.3223C3.38654 15.3222 3.38654 15.3222 3.38654 15.3222V9.60284C3.38747 8.05139 3.89082 6.54199 4.82129 5.30056L4.82129 5.30056C5.75151 4.05943 7.05859 3.15288 8.5469 2.71651C8.71867 2.66696 8.86973 2.56346 8.97797 2.4215L8.97814 2.42129C9.08674 2.27869 9.14651 2.1047 9.14822 1.92519L9.14824 1.92519V1.92041C9.14824 1.5437 9.2979 1.18242 9.56429 0.916034C9.83068 0.649652 10.192 0.5 10.5687 0.5C10.9454 0.5 11.3067 0.649648 11.5731 0.916034C11.8395 1.18242 11.9891 1.5437 11.9891 1.92041L11.9891 1.92484C11.9907 2.10434 12.0503 2.2785 12.1591 2.42131L12.1592 2.42151C12.2676 2.56363 12.4188 2.66711 12.5906 2.71656C14.0789 3.15295 15.3859 4.05948 16.3161 5.30056C17.2465 6.54199 17.7499 8.05139 17.7508 9.60285V15.3232C17.7508 15.3232 17.7508 15.3232 17.7508 15.3232C17.7508 15.8911 17.8976 16.4494 18.1772 16.9437C18.4568 17.4381 18.8595 17.8517 19.3462 18.1443L19.3465 18.1445L20.4041 18.7793L20.4066 18.7808Z" fill="#6C63FF" stroke="white"/>
<path d="M9.8627 24.4385L9.86263 24.4384C9.22859 24.3151 8.61562 24.0069 8.07419 23.5262C7.49493 23.0094 7.01966 22.3141 6.69593 21.5H14.3042C14.0821 22.0583 13.7876 22.5628 13.4348 22.9922L13.4347 22.9923C12.9528 23.5791 12.3777 24.0069 11.7604 24.2535C11.1443 24.4996 10.496 24.5618 9.8627 24.4385Z" fill="#6C63FF" stroke="white"/>
</svg>
