<svg width="500" height="300" viewBox="0 -100 800 600" fill="none" xmlns="http://www.w3.org/2000/svg">
<path d="M354.614 140.53C348.373 129.426 340.977 117.57 329.394 113.944C315.981 109.745 302.201 118.086 290.514 126.318C255.56 150.935 221.899 177.613 189.686 206.229L189.721 206.661C214.801 204.8 239.88 202.94 264.96 201.079C283.08 199.735 301.823 198.205 317.836 188.985C323.913 185.486 329.836 180.812 336.722 180.486C345.276 180.082 352.736 186.508 358.597 193.223C393.272 232.942 403.307 293.682 442.209 328.578C417.678 263.503 388.388 200.623 354.614 140.53V140.53Z" fill="#F2F2F2"/>
<path d="M567.757 477.42C563.922 472.212 562.355 470.992 558.573 465.735C527.775 422.888 498.828 378.594 471.731 332.852C453.326 301.786 435.833 270.123 419.253 237.864C411.36 222.527 403.683 207.071 396.222 191.493C390.433 179.415 384.773 167.265 379.242 155.042C377.66 151.551 376.123 148.044 374.594 144.529C370.99 136.263 367.454 127.957 363.656 119.803C359.329 110.51 354.062 100.767 346.116 94.5233C342.5 91.5652 338.176 89.7754 333.65 89.363C327.181 88.9136 321.213 91.7867 315.602 94.9246C274.554 117.949 236.124 146.816 201.366 179.664C166.517 212.586 135.369 249.779 108.555 290.486C107.735 291.746 105.795 290.542 106.623 289.274C109.883 284.315 113.208 279.408 116.598 274.556C158.745 214.258 210.424 162.406 269.272 121.368C279.172 114.466 289.259 107.888 299.532 101.634C304.71 98.4798 309.91 95.3659 315.199 92.4447C320.385 89.5797 325.891 87.0035 331.814 86.9072C351.973 86.5702 362.411 111.128 369.58 127.652C371.833 132.852 374.114 138.037 376.421 143.205C385.143 162.827 394.2 182.27 403.593 201.533C409.39 213.427 415.314 225.251 421.364 237.005C440.195 273.609 460.209 309.471 481.408 344.593C509.489 391.116 537.347 432.214 569.338 475.719C570.219 476.923 568.645 478.64 567.757 477.42Z" fill="#E4E4E4"/>
<path d="M199.374 167.538C198.202 166.134 197.038 164.729 195.86 163.325C186.564 152.266 176.589 141.335 163.824 134.995C157.737 131.877 151.093 130.22 144.351 130.14C137.383 130.164 130.572 132.13 124.133 134.883C121.089 136.191 118.112 137.676 115.181 139.257C111.831 141.07 108.54 143.005 105.265 144.955C99.1177 148.614 93.0498 152.434 87.0616 156.415C75.1468 164.336 63.6052 172.861 52.4367 181.992C46.647 186.727 40.9769 191.617 35.4262 196.662C30.2635 201.349 25.2053 206.161 20.2514 211.1C19.1921 212.151 17.6103 210.449 18.6697 209.398C19.9753 208.09 21.2959 206.79 22.6164 205.506C26.3467 201.878 30.1368 198.321 33.9866 194.832C41.0068 188.46 48.2088 182.334 55.5925 176.454C67.0745 167.305 78.9518 158.777 91.2243 150.869C97.3571 146.921 103.574 143.138 109.876 139.522C111.779 138.43 113.703 137.363 115.651 136.352C120.069 133.954 124.659 131.944 129.378 130.341C136.062 128.015 143.134 127.267 150.111 128.15C156.848 129.204 163.338 131.619 169.24 135.268C181.774 142.804 191.495 154.457 200.955 165.829C201.91 166.984 200.336 168.694 199.374 167.538Z" fill="#E4E4E4"/>
<path d="M456.186 282.138L486.22 270.321L501.132 264.454C505.988 262.544 510.833 260.368 515.854 259C520.217 257.66 524.849 257.723 529.179 259.183C533.04 260.72 536.575 263.077 539.573 266.113C542.635 269.147 545.484 272.42 548.097 275.906C551.344 280.103 554.543 284.344 557.756 288.571C571.016 306.016 584.19 323.537 597.278 341.133C610.365 358.729 623.364 376.4 636.276 394.146C649.22 411.935 662.074 429.798 674.84 447.736C676.404 449.933 677.966 452.132 679.527 454.331C680.39 455.546 682.335 454.348 681.46 453.116C668.6 434.998 655.651 416.954 642.612 398.984C629.541 380.972 616.379 363.035 603.128 345.175C589.876 327.316 576.535 309.533 563.105 291.829C559.759 287.418 556.407 283.012 553.05 278.611C550.219 274.899 547.419 271.146 544.313 267.691C538.612 261.348 531.489 255.743 522.963 255.591C517.95 255.501 513.098 257.212 508.441 259.025C503.419 260.979 498.41 262.969 493.396 264.942L463.152 276.842L455.591 279.816C454.249 280.344 454.829 282.672 456.186 282.138L456.186 282.138Z" fill="#E4E4E4"/>
<path d="M159.871 148.911C144.608 140.473 125.062 142.125 111.037 152.667C137.789 157.632 164.249 164.275 190.28 172.562C179.47 165.748 171.015 155.071 159.871 148.911Z" fill="#F2F2F2"/>
<path d="M110.887 152.638L107.949 155.207C108.943 154.308 109.976 153.465 111.037 152.667C110.987 152.658 110.937 152.647 110.887 152.638Z" fill="#F2F2F2"/>
<path d="M538.442 282.256C535.485 278.385 532.289 274.331 527.866 272.759L523.738 272.934C555.166 332.672 597.612 384.871 648.471 426.327C611.795 378.303 575.118 330.28 538.442 282.256Z" fill="#F2F2F2"/>
<path d="M281.707 250.321C283.617 257.788 287.921 264.287 293.858 268.669C296.153 270.35 298.869 271.962 299.654 274.827C300.067 276.653 299.812 278.58 298.943 280.211C298.075 281.82 297.019 283.303 295.8 284.624L295.689 285.072C289.994 281.442 284.575 276.849 281.429 270.583C278.283 264.317 277.844 256.104 281.707 250.321" fill="#F2F2F2"/>
<path d="M471.329 428.033C473.239 435.5 477.544 441.999 483.48 446.381C485.775 448.062 488.491 449.674 489.276 452.539C489.689 454.366 489.434 456.293 488.565 457.923C487.697 459.533 486.641 461.016 485.422 462.337L485.311 462.785C479.616 459.154 474.197 454.561 471.051 448.295C467.905 442.029 467.466 433.817 471.329 428.033" fill="#F2F2F2"/>
<path d="M92.8984 415.777C94.809 423.244 99.1133 429.743 105.05 434.125C107.345 435.806 110.06 437.418 110.846 440.283C111.259 442.11 111.004 444.037 110.135 445.667C109.267 447.277 108.211 448.76 106.992 450.08L106.881 450.529C101.185 446.898 95.767 442.305 92.6208 436.039C89.4747 429.773 89.0355 421.561 92.8985 415.777" fill="#F2F2F2"/>
<path d="M528.377 89.2938C551.3 89.2938 569.883 69.3047 569.883 44.6469C569.883 19.9891 551.3 0 528.377 0C505.455 0 486.872 19.9891 486.872 44.6469C486.872 69.3047 505.455 89.2938 528.377 89.2938Z" fill="#6C63FF"/>
<path d="M603.279 10.3917C583.164 7.46694 560.199 19.1623 554.985 40.2645C553.671 36.5125 551.283 33.307 548.164 31.111C545.046 28.915 541.359 27.8422 537.637 28.0477C533.914 28.2532 530.349 29.7262 527.456 32.254C524.563 34.7819 522.492 38.2336 521.542 42.1105L523.845 43.8847C566.951 53.9121 611.573 53.6951 654.594 43.2488C640.602 27.4307 623.394 13.3164 603.279 10.3917Z" fill="#F0F0F0"/>
<path d="M517.013 69.921C496.897 66.9962 473.933 78.6916 468.719 99.7938C467.405 96.0418 465.016 92.8363 461.898 90.6403C458.78 88.4443 455.093 87.3715 451.371 87.577C447.648 87.7825 444.083 89.2555 441.19 91.7833C438.297 94.3112 436.226 97.7629 435.276 101.64L437.579 103.414C480.685 113.441 525.307 113.224 568.328 102.778C554.336 86.96 537.128 72.8457 517.013 69.921Z" fill="#F0F0F0"/>
<path d="M692.578 81.1771C692.495 81.1772 692.412 81.1634 692.332 81.136C477.15 7.9342 287.498 17.5066 166.289 38.4272C149.794 41.2732 133.255 44.5603 117.131 48.198C113.015 49.1256 108.744 50.1198 104.438 51.1551C99.2956 52.387 94.2215 53.6557 89.356 54.9244C87.2547 55.4596 85.1944 55.9991 83.1752 56.5428C80.1166 57.3549 77.0131 58.2013 73.6862 59.1314C69.9688 60.1624 66.1917 61.2439 62.4575 62.3459C62.4439 62.3511 62.4299 62.3554 62.4158 62.3587L62.4162 62.3596C58.1984 63.5983 54.0029 64.873 49.9457 66.146C47.7498 66.8282 45.6294 67.501 43.5984 68.1653C43.3715 68.2329 43.1704 68.2978 42.9666 68.3645L42.5302 68.5073C42.2775 68.5902 42.028 68.6714 41.7784 68.7483L41.7625 68.7535L41.7629 68.7544L41.1025 68.975C40.3149 69.2315 39.5463 69.4819 38.7905 69.7316C18.8151 76.3554 7.834 81.0677 7.72552 81.1139C7.62632 81.1566 7.52026 81.178 7.41339 81.1766C7.30653 81.1753 7.20095 81.1514 7.10268 81.1062C7.00442 81.061 6.91539 80.9954 6.84069 80.9132C6.76599 80.8309 6.70707 80.7337 6.66731 80.627C6.62754 80.5203 6.60771 80.4062 6.60894 80.2912C6.61017 80.1763 6.63243 80.0627 6.67446 79.957C6.71649 79.8513 6.77745 79.7555 6.85389 79.6752C6.93032 79.5948 7.02072 79.5314 7.11992 79.4887C7.2292 79.4425 18.264 74.7063 38.3121 68.0576C39.0707 67.8072 39.8412 67.5567 40.6312 67.2993L41.2447 67.0942C41.2658 67.0856 41.2868 67.0788 41.3083 67.0719C41.5567 66.9958 41.8046 66.9146 42.0566 66.8326L42.4937 66.6898C42.7114 66.6188 42.926 66.5487 43.1458 66.4838C45.1629 65.8238 47.2904 65.1492 49.4919 64.4645C53.5507 63.1906 57.7502 61.916 61.9711 60.6755C61.9843 60.6704 61.9978 60.6669 62.0109 60.6627V60.6618C65.7582 59.5564 69.5491 58.4706 73.2785 57.4362C76.6105 56.5052 79.72 55.6571 82.7838 54.8433C84.8116 54.3004 86.8759 53.7598 88.9765 53.2215C93.8476 51.9511 98.932 50.6807 104.084 49.4462C108.396 48.41 112.674 47.4132 116.797 46.4848C132.946 42.8411 149.511 39.5489 166.032 36.6986C287.413 15.7481 477.338 6.16024 692.823 79.4672C693.008 79.5301 693.166 79.6623 693.269 79.8398C693.371 80.0173 693.412 80.2285 693.382 80.4351C693.352 80.6416 693.255 80.83 693.108 80.9661C692.96 81.1022 692.772 81.177 692.578 81.1771V81.1771Z" fill="#CCCCCC"/>
<path d="M214.028 367.54C213.746 366.654 213.272 365.853 212.645 365.203C212.413 364.972 212.162 364.764 211.896 364.581C209.772 363.058 206.598 362.717 204.579 364.581C204.376 364.771 204.188 364.979 204.018 365.203C203.416 366 202.797 366.779 202.162 367.54C201.121 368.819 200.055 370.053 198.94 371.252C198.622 371.585 198.305 371.926 197.979 372.259C197.792 372.46 197.605 372.653 197.418 372.846C196.702 373.581 195.969 374.29 195.229 374.99C194.838 375.367 194.447 375.734 194.049 376.093C193.454 376.627 192.86 377.161 192.258 377.678C192.201 377.722 192.144 377.765 192.087 377.818C192.071 377.827 192.063 377.844 192.047 377.853C192.038 377.853 192.03 377.853 192.022 377.87C192 377.88 191.981 377.895 191.965 377.914C191.786 378.046 191.664 378.133 191.575 378.212C191.607 378.194 191.64 378.168 191.672 378.151C191.526 378.273 191.371 378.396 191.225 378.518C189.8 379.648 188.344 380.733 186.854 381.749C183.17 384.285 179.299 386.496 175.282 388.358C175.013 388.472 174.736 388.594 174.46 388.708C163.941 393.344 152.53 395.153 141.215 393.978C140.059 393.882 138.903 393.751 137.748 393.584C136.413 393.374 135.087 393.12 133.768 392.832C128.749 391.754 123.838 390.16 119.103 388.069C113.18 385.152 107.547 381.597 102.289 377.459C101.475 376.837 100.653 376.216 99.8315 375.612C100.767 373.143 101.687 370.674 102.582 368.188C103.03 366.989 103.461 365.79 103.884 364.581C107.213 355.276 110.338 345.882 113.333 336.454C116.36 326.903 119.217 317.297 121.903 307.635C122.179 306.654 122.448 305.674 122.708 304.693C124.116 299.59 125.467 294.474 126.761 289.347C126.883 288.848 127.013 288.358 127.127 287.859C127.502 286.388 127.868 284.917 128.226 283.447C129.04 280.129 127.201 276.163 123.962 275.366C122.402 274.936 120.748 275.174 119.349 276.03C117.949 276.886 116.913 278.292 116.458 279.954C116.108 281.372 115.758 282.781 115.4 284.199C113.683 291.054 111.876 297.885 109.98 304.693C109.703 305.674 109.427 306.654 109.15 307.635C104.967 322.465 100.374 337.145 95.3717 351.678C94.7695 353.437 94.1591 355.191 93.5406 356.939C93.2395 357.797 92.9384 358.655 92.6291 359.513C92.035 361.202 91.4247 362.892 90.8143 364.581C90.4643 365.571 90.1062 366.56 89.7482 367.54C89.5122 368.162 89.2843 368.784 89.0564 369.396C86.7361 368.5 84.332 367.878 81.8866 367.54L81.496 367.488C79.6001 367.243 77.6827 367.26 75.791 367.54C72.9597 367.896 70.2356 368.916 67.8112 370.528C65.3868 372.141 63.3212 374.307 61.7606 376.873C57.8786 383.447 57.9275 392.849 63.372 398.434C68.9793 404.186 77.4675 404.142 84.0677 400.544C87.5653 398.509 90.5145 395.535 92.6291 391.912C93.4393 390.599 94.1836 389.24 94.859 387.842C95.0299 387.964 95.2008 388.087 95.3717 388.218C96.0228 388.708 96.6739 389.207 97.3168 389.698C101.063 392.617 105.011 395.224 109.125 397.498C117.973 402.229 127.498 405.328 137.3 406.663C137.52 406.69 137.732 406.725 137.951 406.751C139.034 406.9 140.124 407.014 141.215 407.11C156.858 408.378 172.521 404.934 186.447 397.165C187.627 396.508 188.797 395.82 189.955 395.099C191.754 393.978 193.511 392.788 195.229 391.527C196.164 390.844 197.076 390.153 197.979 389.426C201.927 386.299 205.606 382.797 208.974 378.965C210.252 377.52 211.475 376.029 212.645 374.491C213.75 373.233 214.387 371.582 214.435 369.851C214.429 369.061 214.291 368.278 214.028 367.54V367.54ZM79.2661 388.393C79.437 388.262 79.6079 388.122 79.7706 387.982C79.7218 388.113 79.4858 388.262 79.2661 388.393H79.2661ZM81.8785 385.566C81.6913 385.793 81.5204 386.021 81.3332 386.248C80.7637 386.934 80.152 387.577 79.5021 388.174C79.4125 388.262 79.3149 388.349 79.2172 388.428C79.2162 388.428 79.2151 388.428 79.2141 388.429C79.2131 388.429 79.2122 388.43 79.2114 388.431C79.2107 388.431 79.2101 388.432 79.2097 388.434C79.2093 388.435 79.2091 388.436 79.2091 388.437C79.0915 388.493 78.9774 388.558 78.8673 388.63C78.5173 388.857 78.1592 389.067 77.793 389.26C77.076 389.544 76.3383 389.763 75.5876 389.916C75.0107 389.962 74.4317 389.968 73.8541 389.934H73.8378C73.4392 389.839 73.0454 389.722 72.6578 389.584C72.4625 389.479 72.2753 389.356 72.0881 389.234C72.0148 389.164 71.9497 389.093 71.909 389.05C71.8295 388.972 71.7561 388.887 71.6894 388.796C71.6894 388.795 71.6892 388.794 71.6888 388.792C71.6884 388.791 71.6878 388.79 71.687 388.79C71.6863 388.789 71.6854 388.788 71.6844 388.788C71.6834 388.787 71.6823 388.787 71.6812 388.787C71.5917 388.612 71.494 388.437 71.4045 388.262C71.3999 388.257 71.397 388.251 71.3964 388.244C71.3313 388.025 71.2743 387.798 71.2255 387.57C71.2078 387.171 71.2105 386.77 71.2336 386.371C71.3428 385.812 71.4897 385.262 71.6731 384.725C71.8379 384.345 72.0254 383.976 72.2346 383.622C72.2509 383.587 72.3323 383.447 72.4218 383.289C72.43 383.281 72.4299 383.281 72.4299 383.272C72.552 383.123 72.6741 382.965 72.8043 382.825C73.024 382.563 73.2601 382.335 73.4961 382.099C73.9551 381.776 74.4305 381.48 74.9203 381.215C75.6972 380.918 76.4944 380.687 77.3048 380.523C78.4997 380.421 79.7007 380.433 80.8938 380.558C82.0238 380.769 83.1387 381.064 84.2305 381.442C83.5688 382.824 82.8154 384.152 81.9762 385.417C81.9436 385.469 81.911 385.522 81.8785 385.566V385.566ZM72.8287 382.685C72.757 382.809 72.6723 382.924 72.5764 383.027C72.641 382.898 72.7264 382.782 72.8287 382.685V382.685Z" fill="#3F3D56"/>
<path d="M189.564 278.133C189.491 280.882 189.418 283.631 189.344 286.379C189.19 292.481 189.03 298.586 188.864 304.693C188.693 311.566 188.514 318.435 188.327 325.301C188.238 328.847 188.145 332.392 188.05 335.938C187.798 345.488 187.548 355.036 187.302 364.582C187.277 365.571 187.245 366.551 187.22 367.541C187.098 372.277 186.976 377.013 186.854 381.749C186.716 386.888 186.58 392.026 186.447 397.165C186.349 401.017 186.249 404.872 186.146 408.729C185.414 436.682 184.681 464.634 183.949 492.587C183.918 494.318 183.265 495.969 182.127 497.193C180.989 498.417 179.454 499.119 177.845 499.153C176.23 499.139 174.685 498.442 173.543 497.214C172.401 495.986 171.754 494.324 171.741 492.587C172.148 476.864 172.56 461.141 172.978 445.419C173.344 431.202 173.716 416.985 174.093 402.768C174.215 398.084 174.337 393.398 174.459 388.708C174.647 381.652 174.831 374.596 175.013 367.541C175.037 366.551 175.07 365.571 175.094 364.582C175.11 363.715 175.135 362.857 175.159 361.99C175.517 348.29 175.875 334.586 176.234 320.88C176.38 315.487 176.521 310.092 176.657 304.693C176.819 298.539 176.982 292.388 177.145 286.239C177.218 283.534 177.283 280.838 177.357 278.133C177.388 276.402 178.041 274.751 179.179 273.527C180.317 272.303 181.851 271.6 183.46 271.567C185.075 271.581 186.62 272.277 187.762 273.506C188.904 274.734 189.551 276.396 189.564 278.133V278.133Z" fill="#3F3D56"/>
<path d="M524.396 279.955C517.996 306.025 510.346 331.721 501.478 356.941C499.031 363.898 496.527 370.84 493.851 377.699L494.466 376.131C493.272 379.398 491.746 382.513 489.917 385.421C489.793 385.608 489.666 385.794 489.538 385.978C490.17 385.108 490.29 384.936 489.898 385.462C489.691 385.726 489.487 385.99 489.273 386.246C488.704 386.932 488.092 387.576 487.443 388.175C487.279 388.325 487.113 388.473 486.945 388.616L487.708 387.978C487.62 388.203 486.998 388.501 486.804 388.629C486.177 389.036 485.523 389.392 484.847 389.695L486.305 389.033C485.198 389.513 484.042 389.854 482.862 390.05L484.484 389.815C483.325 389.987 482.15 390.001 480.987 389.855L482.609 390.09C481.658 389.949 480.727 389.679 479.838 389.287L481.296 389.949C480.822 389.727 480.365 389.464 479.93 389.164C479.709 389.01 479.031 388.457 479.918 389.186C480.84 389.944 480.036 389.251 479.847 389.05C479.689 388.882 479.546 388.699 479.391 388.529C478.673 387.737 480.202 389.891 479.714 388.965C479.453 388.501 479.215 388.023 478.999 387.532L479.615 389.101C479.335 388.354 479.136 387.575 479.022 386.78L479.24 388.525C479.124 387.535 479.123 386.534 479.238 385.544L479.02 387.29C479.169 386.185 479.441 385.103 479.829 384.068L479.214 385.636C479.485 384.94 479.805 384.267 480.173 383.624C480.342 383.292 480.54 382.978 480.765 382.686C480.805 382.7 479.733 384.011 480.302 383.349C480.451 383.176 480.59 382.994 480.741 382.822C480.982 382.547 481.24 382.296 481.494 382.036C482.344 381.165 480.304 382.882 481.285 382.193C481.996 381.69 482.745 381.251 483.523 380.88L482.065 381.542C483.368 380.966 484.734 380.572 486.13 380.369L484.507 380.604C486.256 380.387 488.022 380.41 489.765 380.671L488.143 380.436C490.35 380.796 492.507 381.449 494.565 382.38L493.107 381.718C497.493 383.743 501.378 386.751 505.256 389.7C509.001 392.617 512.948 395.224 517.061 397.497C525.91 402.229 535.435 405.329 545.238 406.666C559.297 408.518 573.564 406.543 586.729 400.922C599.894 395.3 611.536 386.213 620.587 374.492C621.691 373.232 622.327 371.58 622.375 369.849C622.363 368.111 621.722 366.445 620.587 365.207C618.348 362.996 614.118 362.371 611.955 365.207C609.905 367.898 607.702 370.45 605.357 372.847C604.263 373.964 603.139 375.046 601.986 376.094C601.328 376.693 600.66 377.28 599.984 377.855C599.663 378.127 598.666 378.851 600.198 377.682C599.847 377.95 599.51 378.243 599.164 378.518C594.038 382.582 588.484 385.981 582.617 388.642L584.075 387.98C577.779 390.821 571.167 392.77 564.404 393.778L566.026 393.543C559.069 394.528 552.022 394.516 545.067 393.51L546.69 393.744C539.737 392.717 532.937 390.725 526.46 387.818L527.918 388.479C521.668 385.505 515.737 381.809 510.229 377.457C507.362 375.173 504.339 373.126 501.185 371.334C497.51 369.315 493.532 368.014 489.435 367.492C481.753 366.52 473.926 369.738 469.702 376.877C465.816 383.447 465.866 392.848 471.309 398.435C476.914 404.188 485.403 404.14 492.009 400.541C498.371 397.074 502.192 389.873 504.88 383.083C510.927 367.802 516.282 352.168 521.27 336.455C526.205 320.909 530.681 305.206 534.697 289.345C535.194 287.381 535.685 285.414 536.168 283.446C536.982 280.129 535.141 276.162 531.904 275.369C530.344 274.937 528.689 275.174 527.289 276.03C525.888 276.885 524.851 278.293 524.396 279.955L524.396 279.955Z" fill="#3F3D56"/>
<path d="M585.298 278.132L583.101 361.993L580.915 445.416L579.679 492.587C579.693 494.324 580.34 495.985 581.482 497.214C582.624 498.442 584.168 499.138 585.783 499.153C587.392 499.12 588.927 498.417 590.065 497.193C591.203 495.969 591.856 494.318 591.887 492.587L594.084 408.727L596.269 325.304L597.505 278.132C597.491 276.396 596.844 274.734 595.702 273.506C594.56 272.278 593.016 271.581 591.401 271.567C589.792 271.6 588.258 272.303 587.12 273.527C585.982 274.751 585.329 276.402 585.298 278.132V278.132Z" fill="#3F3D56"/>
<path opacity="0.2" d="M374.029 469.173H375.924V376.341H420.138V374.308H375.924V335.137H410.069C409.568 334.453 409.053 333.776 408.523 333.109H375.924V307.238C375.297 306.95 374.665 306.673 374.029 306.412V333.109H336.876V299.961C336.239 299.992 335.612 300.039 334.98 300.097V333.109H305.341V308.377C304.704 308.68 304.077 308.999 303.455 309.334V333.109H278.539V335.137H303.455V374.308H278.539V376.341H303.455V469.173H305.341V376.341C309.233 376.341 313.088 377.165 316.684 378.767C320.281 380.369 323.548 382.717 326.301 385.678C329.053 388.639 331.237 392.154 332.726 396.022C334.215 399.891 334.981 404.037 334.98 408.225V469.173H336.876V376.341H374.029V469.173ZM305.341 374.308V335.137H334.98V374.308H305.341ZM336.876 374.308V335.137H337.619C342.401 335.138 347.136 336.151 351.553 338.12C355.971 340.088 359.985 342.974 363.366 346.611C366.747 350.249 369.428 354.567 371.258 359.319C373.088 364.071 374.029 369.164 374.029 374.308H336.876Z" fill="black"/>
<path d="M362.454 441.339C360.068 452.789 354.352 463.122 346.137 470.841C345.534 471.401 344.932 471.944 344.306 472.478C342.784 472.627 341.273 472.779 339.773 472.933C338.527 473.056 337.299 473.187 336.078 473.31L335.858 473.336L335.703 471.9L335.085 466.088C332.686 461.874 331.198 457.133 330.733 452.217C330.268 447.301 330.838 442.336 332.399 437.689C334.548 431.456 338.438 425.949 342.263 420.486C347.545 412.94 352.68 405.482 352.867 396.281C355.466 399.858 357.627 403.78 359.296 407.95C357.721 408.748 356.305 409.869 355.13 411.251C354.796 411.644 354.462 412.196 354.69 412.669C354.885 413.072 355.374 413.168 355.797 413.22C356.814 413.334 357.84 413.448 358.857 413.562C359.671 413.658 360.485 413.746 361.298 413.842C362.283 417.318 362.951 420.889 363.292 424.505C363.841 430.128 363.558 435.81 362.454 441.339V441.339Z" fill="#3F3D56"/>
<path d="M389.473 418.394C384.672 422.15 381.864 427.551 379.683 433.504C377.447 434.274 375.437 435.655 373.848 437.514C373.514 437.907 373.18 438.459 373.408 438.932C373.604 439.334 374.092 439.431 374.515 439.483C375.532 439.597 376.558 439.711 377.575 439.825C375.394 446.863 373.392 454.147 369.534 460.091C366.969 464.015 363.625 467.278 359.744 469.642C358.686 470.29 357.594 470.872 356.472 471.384C352.338 471.725 348.283 472.09 344.306 472.478C342.784 472.627 341.273 472.779 339.773 472.933C338.527 473.056 337.299 473.187 336.078 473.31C336.07 472.828 336.07 472.347 336.078 471.865C336.335 459.039 340.722 446.706 348.489 436.971C348.855 436.516 349.229 436.069 349.612 435.623C353.547 431.102 358.174 427.341 363.292 424.505C371.357 419.994 380.396 417.884 389.473 418.394V418.394Z" fill="#6C63FF"/>
<path d="M341.18 468.443L340.244 471.419L339.772 472.933C338.527 473.056 337.298 473.187 336.078 473.31L335.858 473.336C334.507 473.485 333.164 473.634 331.821 473.783C331.471 473.345 331.121 472.898 330.78 472.443C322.285 461.378 318.207 447.146 319.438 432.856C320.669 418.567 327.107 405.383 337.347 396.185C336.273 402.234 337.526 408.029 339.585 413.781C339.366 413.877 339.154 413.973 338.95 414.078C337.375 414.876 335.96 415.997 334.784 417.379C334.45 417.773 334.116 418.324 334.344 418.797C334.539 419.2 335.028 419.296 335.451 419.348C336.468 419.462 337.494 419.576 338.511 419.69C339.325 419.786 340.139 419.874 340.952 419.97C341.335 420.014 341.717 420.057 342.1 420.101C342.157 420.233 342.206 420.355 342.263 420.486C344.582 425.897 347.081 431.333 348.489 436.971C348.842 438.385 349.119 439.82 349.319 441.269C349.945 446.165 349.539 451.15 348.13 455.854C346.721 460.558 344.346 464.861 341.18 468.443V468.443Z" fill="#6C63FF"/>
<path d="M423.099 341.471C416.093 326.77 405.239 314.402 392.473 305.312C379.666 296.235 364.97 290.708 349.696 289.222C347.694 289.026 345.686 288.912 343.674 288.878C341.297 288.84 305.533 299.936 293.553 308.997C281.579 317.948 271.729 329.801 264.798 343.6C257.879 357.475 254.476 373.064 254.93 388.802C255.523 404.634 259.625 420.084 266.895 433.865C274.066 447.601 284.248 459.245 296.555 467.785C309.037 476.352 321.576 499.069 336.314 499.87C351.163 500.678 368.097 479.25 381.64 472.743C395.183 466.183 406.891 455.919 415.598 442.974C424.058 430.289 429.531 415.585 431.548 400.124C433.642 384.294 432.666 367.967 427.64 352.837C426.351 348.949 424.834 345.153 423.099 341.471C421.651 338.402 417.406 337.272 414.748 339.115C413.379 340.022 412.387 341.462 411.98 343.135C411.572 344.808 411.779 346.585 412.558 348.098C413.409 349.9 414.2 351.732 414.931 353.594L414.316 352.025C417.083 359.182 418.964 366.699 419.912 374.382L419.694 372.637C420.702 380.973 420.684 389.416 419.64 397.746L419.858 396.001C418.803 404.331 416.736 412.476 413.71 420.228L414.325 418.659C412.768 422.614 410.954 426.446 408.896 430.126C407.852 431.985 406.745 433.801 405.575 435.573C405.061 436.35 404.531 437.114 403.997 437.876C403.3 438.87 404.946 436.578 404.226 437.553C404.104 437.719 403.982 437.885 403.859 438.051C403.489 438.548 403.114 439.041 402.734 439.528C400.197 442.785 397.428 445.824 394.452 448.619C393.711 449.314 392.958 449.995 392.192 450.659C391.81 450.991 391.433 451.336 391.035 451.644C391.05 451.632 392.321 450.594 391.569 451.197C391.332 451.386 391.098 451.578 390.861 451.767C389.282 453.025 387.662 454.219 385.999 455.349C382.171 457.944 378.155 460.202 373.99 462.102L375.449 461.44C368.264 464.693 360.713 466.916 352.99 468.051L354.612 467.816C346.893 468.938 339.069 468.953 331.346 467.861L332.968 468.095C325.949 467.081 319.083 465.085 312.545 462.156L314.003 462.818C310.216 461.098 306.565 459.051 303.085 456.698C301.362 455.53 299.685 454.291 298.052 452.979C297.819 452.792 297.588 452.602 297.356 452.414C296.611 451.809 297.892 452.86 297.902 452.867C297.469 452.533 297.052 452.175 296.653 451.795C295.864 451.105 295.088 450.398 294.324 449.675C291.267 446.78 288.413 443.646 285.784 440.3C285.126 439.463 284.482 438.614 283.852 437.752C283.579 437.379 283.082 436.622 284.181 438.215C284.036 438.005 283.887 437.8 283.74 437.591C283.39 437.091 283.044 436.587 282.702 436.079C281.507 434.3 280.371 432.477 279.294 430.611C276.86 426.386 274.737 421.964 272.942 417.385L273.557 418.953C270.62 411.436 268.612 403.538 267.583 395.459L267.801 397.205C266.873 389.758 266.86 382.212 267.762 374.762L267.544 376.508C268.468 369.293 270.273 362.241 272.911 355.533L272.295 357.101C273.955 352.902 275.913 348.847 278.151 344.971C279.272 343.032 280.459 341.139 281.714 339.294C281.999 338.875 282.287 338.459 282.578 338.044C282.842 337.67 283.567 336.737 282.33 338.384C282.451 338.223 282.568 338.057 282.687 337.894C283.376 336.956 284.081 336.032 284.803 335.123C287.536 331.682 290.496 328.458 293.66 325.475C294.46 324.721 295.272 323.983 296.097 323.261C296.472 322.933 296.849 322.608 297.229 322.287C297.381 322.159 297.535 322.032 297.686 321.903C296.061 323.295 297.235 322.282 297.604 321.984C299.304 320.614 301.05 319.312 302.841 318.079C306.823 315.34 311.012 312.965 315.363 310.981L313.905 311.643C320.22 308.79 348.2 302.057 353.289 302.792L351.667 302.558C359.147 303.681 366.457 305.854 373.412 309.021L371.954 308.359C375.479 309.969 378.904 311.819 382.209 313.9C383.86 314.941 385.479 316.039 387.065 317.193C387.816 317.74 388.558 318.299 389.293 318.87C389.661 319.155 390.026 319.444 390.389 319.735C390.591 319.897 390.791 320.062 390.992 320.224C391.838 320.906 389.827 319.236 390.714 319.991C393.681 322.498 396.499 325.204 399.151 328.091C400.454 329.518 401.712 330.99 402.925 332.508C403.547 333.286 404.157 334.077 404.753 334.878C405.05 335.276 406.06 336.717 404.822 334.952C405.125 335.384 405.43 335.812 405.729 336.247C408.301 339.991 410.585 343.955 412.558 348.098C414.018 351.16 418.244 352.302 420.909 350.454C422.279 349.547 423.271 348.108 423.679 346.435C424.087 344.761 423.879 342.983 423.099 341.471Z" fill="#3F3D56"/>
<path d="M351.979 448.619C351.348 448.65 350.725 448.472 350.192 448.109C349.659 447.746 349.243 447.216 348.999 446.59C348.756 445.964 348.697 445.273 348.832 444.61C348.966 443.947 349.286 443.344 349.749 442.884C349.827 442.552 349.882 442.314 349.96 441.982C349.932 441.91 349.904 441.838 349.876 441.766C347.044 434.502 328.973 454.752 328.192 461.578C327.848 464.596 327.993 467.655 328.621 470.62C322.767 456.884 319.727 441.955 319.708 426.846C319.707 423.054 319.903 419.265 320.295 415.497C320.618 412.408 321.068 409.341 321.643 406.296C324.78 389.774 331.516 374.287 341.298 361.109C346.892 361.445 351.795 360.528 352.268 348.866C352.352 346.792 353.783 344.995 354.098 342.952C353.564 343.027 353.021 343.074 352.487 343.112C352.321 343.121 352.146 343.131 351.979 343.14L351.917 343.143C351.33 343.171 350.748 343.017 350.241 342.697C349.733 342.378 349.323 341.908 349.058 341.344C348.794 340.779 348.687 340.145 348.75 339.516C348.813 338.888 349.043 338.293 349.413 337.802C349.644 337.497 349.875 337.192 350.106 336.887C350.456 336.416 350.815 335.954 351.165 335.483C351.205 335.439 351.243 335.391 351.279 335.342C351.682 334.805 352.084 334.278 352.487 333.741C351.752 332.514 350.763 331.486 349.598 330.737C345.562 328.194 339.994 329.955 337.078 333.882C334.154 337.81 333.602 343.319 334.618 348.226C335.617 352.401 337.269 356.363 339.503 359.941C339.284 360.243 339.057 360.535 338.838 360.836C334.837 366.371 331.349 372.313 328.426 378.579C329.253 371.63 319.139 346.532 315.228 341.216C310.529 334.83 300.895 337.617 300.067 345.711C300.059 345.79 300.052 345.868 300.044 345.947C300.625 346.299 301.194 346.673 301.75 347.069C302.449 347.572 302.991 348.289 303.304 349.129C303.617 349.968 303.688 350.889 303.506 351.772C303.324 352.655 302.898 353.458 302.285 354.077C301.671 354.695 300.899 355.099 300.068 355.237L299.983 355.251C292.206 367.195 317.136 398.283 323.376 391.303C320.439 400.256 318.597 409.583 317.896 419.048C317.499 424.632 317.522 430.241 317.966 435.821L317.939 435.623C316.553 423.47 292.767 405.401 285.821 406.906C281.819 407.773 277.878 407.576 278.486 411.918C278.495 411.987 278.505 412.056 278.515 412.126C279.593 412.598 280.643 413.142 281.658 413.755C282.239 414.107 282.808 414.482 283.364 414.877C284.063 415.38 284.605 416.098 284.918 416.937C285.232 417.776 285.302 418.697 285.12 419.58C284.938 420.463 284.513 421.267 283.899 421.885C283.286 422.503 282.513 422.908 281.682 423.045L281.597 423.06C281.536 423.069 281.483 423.078 281.422 423.088C277.882 436.19 304.134 457.335 320.093 450.607H320.102C321.684 458 323.975 465.196 326.94 472.079H351.366C351.454 471.787 351.533 471.486 351.612 471.194C349.351 471.347 347.081 471.201 344.853 470.761C346.665 468.369 348.477 465.958 350.29 463.566C350.33 463.521 350.368 463.474 350.403 463.424C351.323 462.2 352.251 460.985 353.17 459.761L353.17 459.759C353.219 456.006 352.819 452.262 351.979 448.62L351.979 448.619ZM324.007 389.429L324.02 389.41L324.007 389.447V389.429ZM318.596 441.895L318.386 441.387C318.395 441.019 318.395 440.652 318.386 440.275C318.386 440.172 318.368 440.068 318.368 439.965C318.447 440.614 318.517 441.264 318.605 441.914L318.596 441.895Z" fill="#3F3D56"/>
<path d="M77.5161 393.944C82.4602 393.944 86.4682 389.632 86.4682 384.314C86.4682 378.995 82.4602 374.684 77.5161 374.684C72.572 374.684 68.564 378.995 68.564 384.314C68.564 389.632 72.572 393.944 77.5161 393.944Z" fill="#3F3D56"/>
<path d="M184.942 498.995C189.886 498.995 193.894 494.684 193.894 489.365C193.894 484.047 189.886 479.736 184.942 479.736C179.998 479.736 175.99 484.047 175.99 489.365C175.99 494.684 179.998 498.995 184.942 498.995Z" fill="#3F3D56"/>
<path d="M592.67 498.995C597.614 498.995 601.622 494.684 601.622 489.365C601.622 484.047 597.614 479.736 592.67 479.736C587.726 479.736 583.718 484.047 583.718 489.365C583.718 494.684 587.726 498.995 592.67 498.995Z" fill="#3F3D56"/>
<path d="M614.644 376.435C619.588 376.435 623.596 372.123 623.596 366.805C623.596 361.487 619.588 357.175 614.644 357.175C609.699 357.175 605.691 361.487 605.691 366.805C605.691 372.123 609.699 376.435 614.644 376.435Z" fill="#3F3D56"/>
<path d="M588.601 287.141C593.545 287.141 597.553 282.83 597.553 277.511C597.553 272.193 593.545 267.882 588.601 267.882C583.657 267.882 579.649 272.193 579.649 277.511C579.649 282.83 583.657 287.141 588.601 287.141Z" fill="#3F3D56"/>
<path d="M215.053 366.805C215.048 369.265 214.164 371.628 212.583 373.406C211.003 375.184 208.848 376.241 206.564 376.357C204.28 376.473 202.041 375.64 200.312 374.031C198.583 372.421 197.495 370.158 197.274 367.71C197.052 365.262 197.715 362.816 199.123 360.878C200.532 358.94 202.579 357.659 204.841 357.3C207.104 356.941 209.408 357.531 211.277 358.948C213.146 360.366 214.437 362.502 214.882 364.914C214.997 365.537 215.054 366.17 215.053 366.805V366.805Z" fill="#3F3D56"/>
<path d="M394.096 315.155C399.04 315.155 403.048 310.843 403.048 305.525C403.048 300.207 399.04 295.895 394.096 295.895C389.152 295.895 385.144 300.207 385.144 305.525C385.144 310.843 389.152 315.155 394.096 315.155Z" fill="#3F3D56"/>
<path d="M305.389 305.525C305.383 307.985 304.499 310.348 302.919 312.126C301.339 313.904 299.183 314.961 296.899 315.077C294.615 315.193 292.377 314.36 290.648 312.751C288.918 311.141 287.83 308.878 287.609 306.43C287.388 303.982 288.05 301.536 289.459 299.598C290.867 297.66 292.915 296.379 295.177 296.02C297.439 295.661 299.743 296.251 301.612 297.668C303.481 299.086 304.772 301.222 305.218 303.634C305.333 304.257 305.39 304.89 305.389 305.525V305.525Z" fill="#3F3D56"/>
<path d="M189.825 277.511C189.819 279.971 188.935 282.334 187.355 284.112C185.775 285.89 183.619 286.947 181.335 287.063C179.051 287.179 176.813 286.347 175.084 284.737C173.354 283.127 172.267 280.864 172.045 278.416C171.824 275.968 172.486 273.522 173.895 271.584C175.303 269.647 177.351 268.366 179.613 268.006C181.875 267.647 184.179 268.237 186.048 269.654C187.917 271.072 189.208 273.208 189.654 275.62C189.769 276.243 189.826 276.876 189.825 277.511V277.511Z" fill="#3F3D56"/>
<path d="M487.686 397.445C492.63 397.445 496.638 393.134 496.638 387.815C496.638 382.497 492.63 378.186 487.686 378.186C482.742 378.186 478.734 382.497 478.734 387.815C478.734 393.134 482.742 397.445 487.686 397.445Z" fill="#3F3D56"/>
<path d="M346.894 309.902C354.085 309.902 359.915 303.631 359.915 295.895C359.915 288.16 354.085 281.888 346.894 281.888C339.702 281.888 333.873 288.16 333.873 295.895C333.873 303.631 339.702 309.902 346.894 309.902Z" fill="#3F3D56"/>
<path d="M699.031 499.731L0.969005 500C0.841753 500 0.715743 499.973 0.598177 499.921C0.480612 499.868 0.373795 499.791 0.283815 499.695C0.193834 499.598 0.122448 499.483 0.0737508 499.357C0.0250534 499.23 0 499.095 0 498.958C0 498.821 0.0250534 498.685 0.0737508 498.559C0.122448 498.432 0.193834 498.317 0.283815 498.221C0.373795 498.124 0.480612 498.047 0.598177 497.995C0.715743 497.942 0.841753 497.915 0.969005 497.915L699.031 497.646C699.288 497.647 699.533 497.757 699.714 497.953C699.896 498.148 699.997 498.413 699.997 498.689C699.997 498.965 699.896 499.229 699.714 499.425C699.533 499.62 699.288 499.73 699.031 499.731V499.731Z" fill="#CACACA"/>
</svg>
