<svg width="30" height="31" viewBox="0 0 30 31" fill="none" xmlns="http://www.w3.org/2000/svg">
<path d="M15 26.6183C23.2843 26.6183 30 20.6596 30 13.3091C30 5.9587 23.2843 0 15 0C6.71573 0 0 5.9587 0 13.3091C0 20.6596 6.71573 26.6183 15 26.6183Z" fill="#6B718E"/>
<path d="M24.4752 14.5182C25.8438 14.5182 26.9533 13.5337 26.9533 12.3194C26.9533 11.105 25.8438 10.1206 24.4752 10.1206C23.1066 10.1206 21.9971 11.105 21.9971 12.3194C21.9971 13.5337 23.1066 14.5182 24.4752 14.5182Z" fill="#FBC0AA"/>
<path d="M14.4469 30.503C19.0345 30.511 23.4651 29.0207 26.8938 26.3162L26.1969 24.8411C25.6625 23.732 24.2531 23 22.6688 23H6.225C4.64062 23 3.23125 23.7375 2.69687 24.8411L2 26.3162C5.42866 29.0207 9.85921 30.511 14.4469 30.503Z" fill="#FFD8C9"/>
<path d="M5.2125 14.5182C6.58113 14.5182 7.69063 13.5337 7.69063 12.3194C7.69063 11.105 6.58113 10.1206 5.2125 10.1206C3.84387 10.1206 2.73438 11.105 2.73438 12.3194C2.73438 13.5337 3.84387 14.5182 5.2125 14.5182Z" fill="#FBC0AA"/>
<path d="M24.4063 11.9229H23.7344V5.54556H24.4063C24.7257 5.54775 25.0312 5.66168 25.2565 5.8626C25.4817 6.06352 25.6086 6.3352 25.6094 6.61861V10.847C25.6094 11.1309 25.4829 11.4033 25.2576 11.6048C25.0322 11.8063 24.7262 11.9207 24.4063 11.9229Z" fill="#8F5653"/>
<path d="M5.5875 5.54541H6.25V11.9227H5.5875C5.26647 11.9227 4.95853 11.8097 4.73124 11.6086C4.50394 11.4074 4.37583 11.1345 4.375 10.8497V6.62123C4.375 6.33591 4.50274 6.06227 4.73013 5.86051C4.95752 5.65876 5.26593 5.54541 5.5875 5.54541Z" fill="#8F5653"/>
<path d="M15.0002 21.7632C12.4588 21.7625 10.0218 20.8662 8.22504 19.2715C6.4283 17.6767 5.41895 15.5141 5.41895 13.2592V8.5012C5.41895 6.24654 6.4284 4.08423 8.22523 2.48994C10.0221 0.89566 12.4591 0 15.0002 0C17.5413 0 19.9783 0.89566 21.7752 2.48994C23.572 4.08423 24.5814 6.24654 24.5814 8.5012V13.2592C24.5814 15.5141 23.5721 17.6767 21.7754 19.2715C19.9786 20.8662 17.5416 21.7625 15.0002 21.7632Z" fill="#FFD8C9"/>
<path d="M16.9409 16.6362C16.9758 16.6364 17.0103 16.6431 17.0422 16.656C17.074 16.6688 17.1023 16.6876 17.1254 16.7109C17.1484 16.7342 17.1656 16.7616 17.1758 16.7913C17.186 16.821 17.189 16.8522 17.1846 16.883C17.1846 17.3978 16.9541 17.8914 16.5439 18.2554C16.1337 18.6194 15.5773 18.8239 14.9971 18.8239C14.4169 18.8239 13.8605 18.6194 13.4503 18.2554C13.0401 17.8914 12.8096 17.3978 12.8096 16.883C12.8052 16.8522 12.8082 16.821 12.8184 16.7913C12.8286 16.7616 12.8458 16.7342 12.8688 16.7109C12.8919 16.6876 12.9202 16.6688 12.9521 16.656C12.9839 16.6431 13.0184 16.6364 13.0534 16.6362H16.9409Z" fill="white"/>
<path d="M12.3655 16.9137C12.3184 16.914 12.2717 16.9054 12.2286 16.8884C12.1855 16.8714 12.147 16.8465 12.1156 16.8153C12.0843 16.784 12.0608 16.7472 12.0468 16.7073C12.0327 16.6674 12.0285 16.6252 12.0342 16.5837C12.1164 15.9361 12.4645 15.3381 13.0122 14.9038C13.5598 14.4696 14.2685 14.2295 15.003 14.2295C15.7375 14.2295 16.4462 14.4696 16.9938 14.9038C17.5414 15.3381 17.8896 15.9361 17.9717 16.5837C17.9776 16.6257 17.9732 16.6683 17.9588 16.7086C17.9444 16.749 17.9203 16.7861 17.8883 16.8174C17.8563 16.8487 17.817 16.8735 17.7731 16.8901C17.7293 16.9068 17.6819 16.9148 17.6342 16.9137H15.6624L14.9999 16.6364L14.2967 16.9137H12.3655Z" fill="#8F5653"/>
<path d="M16.928 13.8635C16.928 14.3172 16.7249 14.7523 16.3633 15.0732C16.0017 15.394 15.5113 15.5742 14.9999 15.5742C14.4885 15.5742 13.9981 15.394 13.6365 15.0732C13.2749 14.7523 13.0718 14.3172 13.0718 13.8635C13.0718 12.9179 13.9343 11.4512 14.9999 11.4512C16.0655 11.4512 16.928 12.9207 16.928 13.8635Z" fill="#FF8475"/>
<path d="M18.7812 12.3864C19.2127 12.3864 19.5625 12.076 19.5625 11.6932C19.5625 11.3103 19.2127 11 18.7812 11C18.3498 11 18 11.3103 18 11.6932C18 12.076 18.3498 12.3864 18.7812 12.3864Z" fill="#393C54"/>
<path d="M10.7812 12.6935C11.2127 12.6935 11.5625 12.3831 11.5625 12.0003C11.5625 11.6175 11.2127 11.3071 10.7812 11.3071C10.3498 11.3071 10 11.6175 10 12.0003C10 12.3831 10.3498 12.6935 10.7812 12.6935Z" fill="#393C54"/>
<path d="M13 4C11.0578 2.66667 8.94222 2.66667 7 4H13Z" fill="#FFD8C9"/>
<path d="M13 4C11.0578 2.66667 8.94222 2.66667 7 4" stroke="#8F5653" stroke-width="3" stroke-linecap="round" stroke-linejoin="round"/>
<path d="M22.625 5.50188C21.7343 5.17061 20.7783 5 19.8125 5C18.8467 5 17.8907 5.17061 17 5.50188" fill="#FFD8C9"/>
<path d="M22.625 5.50188C21.7343 5.17061 20.7783 5 19.8125 5C18.8467 5 17.8907 5.17061 17 5.50188" stroke="#8F5653" stroke-width="3" stroke-linecap="round" stroke-linejoin="round"/>
<path d="M5.41875 8.27924V7.13965H5V10.1203H5.10625V11.6453C5.10625 11.7189 5.13917 11.7894 5.19778 11.8414C5.25638 11.8934 5.33587 11.9226 5.41875 11.9226H5.9375C6.00507 11.9226 6.07197 11.9108 6.13435 11.8877C6.19673 11.8647 6.25337 11.831 6.301 11.7884C6.34863 11.7459 6.38632 11.6955 6.41189 11.64C6.43746 11.5845 6.45041 11.5251 6.45 11.4651V9.1887C6.45 9.12898 6.43674 9.06985 6.41099 9.01468C6.38523 8.95951 6.34748 8.90938 6.29989 8.86716C6.2523 8.82493 6.1958 8.79144 6.13363 8.76858C6.07145 8.74573 6.0048 8.73397 5.9375 8.73397C5.86967 8.7347 5.80236 8.72348 5.73946 8.70096C5.67655 8.67844 5.61931 8.64506 5.57106 8.60276C5.52281 8.56046 5.4845 8.51008 5.45835 8.45455C5.43221 8.39902 5.41875 8.33943 5.41875 8.27924Z" fill="#8F5653"/>
<path d="M24.5748 8.27924V7.13965H24.9998V10.1203H24.8936V11.6453C24.8936 11.7189 24.8606 11.7894 24.802 11.8414C24.7434 11.8934 24.6639 11.9226 24.5811 11.9226H24.0623C23.9261 11.9219 23.7957 11.8734 23.6997 11.7876C23.6037 11.7019 23.5498 11.586 23.5498 11.4651V9.1887C23.5506 9.06832 23.6049 8.95308 23.7008 8.86796C23.7968 8.78284 23.9266 8.7347 24.0623 8.73397C24.198 8.73324 24.3279 8.6851 24.4238 8.59998C24.5197 8.51486 24.574 8.39962 24.5748 8.27924Z" fill="#8F5653"/>
<path d="M23.8 10.478C23.8 13.267 22.8729 15.9418 21.2225 17.914C19.5722 19.8861 17.3339 20.9941 15 20.9941C12.6661 20.9941 10.4278 19.8861 8.77746 17.914C7.12714 15.9418 6.2 13.267 6.2 10.478C6.2 10.3155 6.2 10.1577 6.2 10H5V20.3918C8.13761 22.1104 11.5485 23 15 23C18.4515 23 21.8624 22.1104 25 20.3918V10H23.8C23.8 10.1577 23.8 10.3155 23.8 10.478Z" fill="#8F5653"/>
</svg>
