<svg width="20" height="20" viewBox="0 0 20 20" fill="none" xmlns="http://www.w3.org/2000/svg">
<path d="M19.9261 7.53704C19.8367 7.24535 19.6645 6.98849 19.4319 6.80013C19.1994 6.61176 18.9173 6.50069 18.6229 6.48148L13.3206 6.10185L11.3568 0.962963C11.2496 0.680003 11.0629 0.436948 10.821 0.265263C10.5791 0.093578 10.2931 0.00116934 10 0V0C9.7069 0.00116934 9.42088 0.093578 9.17898 0.265263C8.93707 0.436948 8.75042 0.680003 8.64319 0.962963L6.64369 6.12963L1.37713 6.48148C1.08301 6.50194 0.80158 6.61348 0.569238 6.80166C0.336896 6.98984 0.164337 7.24601 0.0738838 7.53704C-0.0190034 7.83252 -0.0244304 8.15009 0.0583024 8.44881C0.141035 8.74752 0.308134 9.01368 0.538055 9.21296L4.59062 12.7685L3.38556 17.6852C3.30219 18.0178 3.31719 18.3687 3.42863 18.6924C3.54006 19.016 3.74277 19.2974 4.01041 19.5C4.2702 19.6934 4.57971 19.802 4.89933 19.8119C5.21896 19.8218 5.53416 19.7325 5.80461 19.5556L9.99107 16.8056H10.0089L14.5167 19.7593C14.748 19.9151 15.0176 19.9987 15.2933 20C15.5185 19.9982 15.7403 19.9428 15.9416 19.8382C16.1429 19.7335 16.3184 19.5824 16.4546 19.3964C16.5908 19.2104 16.6841 18.9945 16.7273 18.7653C16.7705 18.536 16.7624 18.2996 16.7037 18.0741L15.4272 12.6944L19.4619 9.21296C19.6919 9.01368 19.859 8.74752 19.9417 8.44881C20.0244 8.15009 20.019 7.83252 19.9261 7.53704Z" fill="#fff" stroke="#6C63FF" stroke-width="2"/>
</svg>
