<svg width="20" height="22" viewBox="0 0 20 22" fill="none" xmlns="http://www.w3.org/2000/svg">
<path d="M11.8333 7.33333H10.6667V6.16667C10.6667 5.46667 10.2 5 9.5 5C8.8 5 8.33333 5.46667 8.33333 6.16667V7.33333H7.16667C6.46667 7.33333 6 7.8 6 8.5C6 9.2 6.46667 9.66667 7.16667 9.66667H8.33333V10.8333C8.33333 11.5333 8.8 12 9.5 12C10.2 12 10.6667 11.5333 10.6667 10.8333V9.66667H11.8333C12.5333 9.66667 13 9.2 13 8.5C13 7.8 12.5333 7.33333 11.8333 7.33333Z" fill="#303C76"/>
<path fill-rule="evenodd" clip-rule="evenodd" d="M3 18.4371V3.24995C3 2.65323 3.22827 2.08094 3.6346 1.65899C4.04093 1.23705 4.59203 1 5.16667 1L13.8333 1C14.408 1 14.9591 1.23705 15.3654 1.65899C15.7717 2.08094 16 2.65323 16 3.24995V18.4371C16.0001 18.5348 15.9756 18.6308 15.9291 18.7157C15.8826 18.8006 15.8156 18.8714 15.7347 18.9213C15.6538 18.9711 15.5618 18.9982 15.4678 18.9999C15.3737 19.0016 15.2809 18.9779 15.1983 18.931L9.5 15.7023L3.80167 18.931C3.71915 18.9779 3.6263 19.0016 3.53225 18.9999C3.4382 18.9982 3.3462 18.9711 3.2653 18.9213C3.1844 18.8714 3.1174 18.8006 3.07088 18.7157C3.02436 18.6308 2.99993 18.5348 3 18.4371ZM10.0417 6.06238C10.0417 5.9132 9.9846 5.77013 9.88302 5.66465C9.78143 5.55916 9.64366 5.4999 9.5 5.4999C9.35634 5.4999 9.21857 5.55916 9.11698 5.66465C9.0154 5.77013 8.95833 5.9132 8.95833 6.06238V7.74985H7.33333C7.18967 7.74985 7.0519 7.80911 6.95032 7.91459C6.84874 8.02008 6.79167 8.16315 6.79167 8.31233C6.79167 8.46151 6.84874 8.60458 6.95032 8.71007C7.0519 8.81556 7.18967 8.87482 7.33333 8.87482H8.95833V10.5623C8.95833 10.7115 9.0154 10.8545 9.11698 10.96C9.21857 11.0655 9.35634 11.1248 9.5 11.1248C9.64366 11.1248 9.78143 11.0655 9.88302 10.96C9.9846 10.8545 10.0417 10.7115 10.0417 10.5623V8.87482H11.6667C11.8103 8.87482 11.9481 8.81556 12.0497 8.71007C12.1513 8.60458 12.2083 8.46151 12.2083 8.31233C12.2083 8.16315 12.1513 8.02008 12.0497 7.91459C11.9481 7.80911 11.8103 7.74985 11.6667 7.74985H10.0417V6.06238Z" fill="#6C63FF"/>
<path d="M18.1416 0H16.9322H2.41888H1.20944C0.483777 0 0 0.467715 0 1.16929C0 1.87086 0.483777 2.33858 1.20944 2.33858V18.8255C1.20944 19.6441 1.69322 20.4626 2.53983 20.9303C2.90266 21.1641 3.26549 21.1641 3.62832 21.1641C4.1121 21.1641 4.59588 21.0472 4.95871 20.8133L9.67553 17.7732L14.3924 20.8133C15.118 21.2811 16.0856 21.398 16.9322 20.9303C17.7788 20.5795 18.2626 19.761 18.2626 18.8255V2.33858C18.9882 2.33858 19.472 1.87086 19.472 1.16929C19.472 0.467715 18.8673 0 18.1416 0ZM15.7227 18.8255L11.0059 15.7854C10.6431 15.5515 10.1593 15.4346 9.67553 15.4346C9.19176 15.4346 8.70798 15.5515 8.34515 15.7854L3.62832 18.8255V2.33858H15.7227V18.8255Z" fill="#303C76"/>
</svg>
