<svg width="21" height="22" viewBox="0 0 21 22" fill="none" xmlns="http://www.w3.org/2000/svg">
<path d="M12.7601 8.88545H11.5507V7.71616C11.5507 7.01459 11.0669 6.54688 10.3412 6.54688C9.61555 6.54688 9.13177 7.01459 9.13177 7.71616V8.88545H7.92233C7.19667 8.88545 6.71289 9.35317 6.71289 10.0547C6.71289 10.7563 7.19667 11.224 7.92233 11.224H9.13177V12.3933C9.13177 13.0949 9.61555 13.5626 10.3412 13.5626C11.0669 13.5626 11.5507 13.0949 11.5507 12.3933V11.224H12.7601C13.4858 11.224 13.9695 10.7563 13.9695 10.0547C13.9695 9.35317 13.4858 8.88545 12.7601 8.88545Z" fill="#303C76"/>
<path d="M18.8076 0.700684H17.5982H3.0849H1.87546C1.14979 0.700684 0.666016 1.1684 0.666016 1.86997C0.666016 2.57155 1.14979 3.03926 1.87546 3.03926V19.5262C1.87546 20.3447 2.35923 21.1632 3.20584 21.631C3.56868 21.8648 3.93151 21.8648 4.29434 21.8648C4.77812 21.8648 5.26189 21.7479 5.62473 21.514L10.3415 18.4739L15.0584 21.514C15.784 21.9817 16.7516 22.0987 17.5982 21.631C18.4448 21.2802 18.9286 20.4617 18.9286 19.5262V3.03926C19.6542 3.03926 20.138 2.57155 20.138 1.86997C20.138 1.1684 19.5333 0.700684 18.8076 0.700684ZM16.3888 19.5262L11.6719 16.4861C11.3091 16.2522 10.8253 16.1353 10.3415 16.1353C9.85777 16.1353 9.37399 16.2522 9.01116 16.4861L4.29434 19.5262V3.03926H16.3888V19.5262Z" fill="#303C76"/>
</svg>
