<svg width="40" height="40" viewBox="0 0 40 40" fill="none" xmlns="http://www.w3.org/2000/svg">
<path d="M39.0629 18.5656L39.0641 18.565L29.6192 21.9386C27.902 22.5532 27.7569 21.9001 27.7481 21.7209V18.9489C27.7481 17.2347 26.6671 15.8438 25.3323 15.8438H2.41634C1.08224 15.8438 0 17.2347 0 18.9489V36.7804C0 38.494 1.08224 39.8842 2.41634 39.8842H25.3323C26.6671 39.8842 27.7481 38.494 27.7481 36.7804V34.9078C27.7556 34.7612 27.8906 34.2508 29.4879 34.6445L39.2419 37.0555C39.5942 37.1702 40 37.1435 40 36.3933V19.3008C40 18.2971 39.3568 18.4444 39.0629 18.5656Z" fill="#FFF1F4"/>
<path d="M6.48259 13.4529C10.0626 13.4529 12.9647 10.4413 12.9647 6.72644C12.9647 3.01153 10.0626 0 6.48259 0C2.90263 0 0.000488281 3.01153 0.000488281 6.72644C0.000488281 10.4413 2.90263 13.4529 6.48259 13.4529Z" fill="#FFF1F4"/>
<path d="M21.2902 13.4529C24.8702 13.4529 27.7723 10.4413 27.7723 6.72644C27.7723 3.01153 24.8702 0 21.2902 0C17.7102 0 14.8081 3.01153 14.8081 6.72644C14.8081 10.4413 17.7102 13.4529 21.2902 13.4529Z" fill="#FFF1F4"/>
</svg>
