<svg width="41" height="37" viewBox="0 0 41 37" fill="none" xmlns="http://www.w3.org/2000/svg">
<path fill-rule="evenodd" clip-rule="evenodd" d="M28.125 18.229C28.125 17.3661 27.4254 16.6665 26.5625 16.6665H1.5625C0.699562 16.6665 0 17.3661 0 18.229C0 19.0919 0.699562 19.7915 1.5625 19.7915H26.5625C27.4254 19.7915 28.125 19.0919 28.125 18.229Z" fill="white"/>
<path fill-rule="evenodd" clip-rule="evenodd" d="M9.95902 9.83264C9.34883 9.22245 8.35949 9.22245 7.74931 9.83264L0.457641 17.1244C-0.152547 17.7346 -0.152547 18.7237 0.457641 19.334L7.74931 26.6256C8.35949 27.2358 9.34883 27.2358 9.95902 26.6256C10.5692 26.0154 10.5692 25.0262 9.95902 24.416L3.7722 18.2292L9.95902 12.0423C10.5692 11.4322 10.5692 10.4428 9.95902 9.83264Z" fill="white"/>
<path fill-rule="evenodd" clip-rule="evenodd" d="M12.5 1.5625C12.5 0.699562 13.1996 0 14.0625 0H39.0625C39.9254 0 40.625 0.699562 40.625 1.5625V5.72917C40.625 6.5921 39.9254 7.29167 39.0625 7.29167C38.1996 7.29167 37.5 6.5921 37.5 5.72917V3.125H15.625V7.8125C15.625 8.67544 14.9254 9.375 14.0625 9.375C13.1996 9.375 12.5 8.67544 12.5 7.8125V1.5625ZM39.0625 12.5C39.9254 12.5 40.625 13.1996 40.625 14.0625V34.8958C40.625 35.7587 39.9254 36.4583 39.0625 36.4583H14.0625C13.1996 36.4583 12.5 35.7587 12.5 34.8958V28.6458C12.5 27.7829 13.1996 27.0833 14.0625 27.0833C14.9254 27.0833 15.625 27.7829 15.625 28.6458V33.3333H37.5V14.0625C37.5 13.1996 38.1996 12.5 39.0625 12.5Z" fill="white"/>
</svg>
